<svg class="main-svg" xmlns="http://www.w3.org/2000/svg" xmlns:xlink="http://www.w3.org/1999/xlink" width="800" height="400" style="" viewBox="0 0 800 400"><rect x="0" y="0" width="800" height="400" style="fill: rgb(255, 255, 255); fill-opacity: 1;"/><defs id="defs-cb660e"><g class="clips"><clipPath id="clipcb660exyplot" class="plotclip"><rect width="479" height="220"/></clipPath><clipPath class="axesclip" id="clipcb660ex"><rect x="80" y="0" width="479" height="400"/></clipPath><clipPath class="axesclip" id="clipcb660ey"><rect x="0" y="100" width="800" height="220"/></clipPath><clipPath class="axesclip" id="clipcb660exy"><rect x="80" y="100" width="479" height="220"/></clipPath></g><g class="gradients"><linearGradient x1="0" x2="0" y1="1" y2="0" id="gcb660e-cbf85a90"><stop offset="0%" stop-color="rgb(247, 251, 255)" stop-opacity="1"/><stop offset="12.5%" stop-color="rgb(222, 235, 247)" stop-opacity="1"/><stop offset="25%" stop-color="rgb(198, 219, 239)" stop-opacity="1"/><stop offset="37.5%" stop-color="rgb(158, 202, 225)" stop-opacity="1"/><stop offset="50%" stop-color="rgb(107, 174, 214)" stop-opacity="1"/><stop offset="62.5%" stop-color="rgb(66, 146, 198)" stop-opacity="1"/><stop offset="75%" stop-color="rgb(33, 113, 181)" stop-opacity="1"/><stop offset="87.5%" stop-color="rgb(8, 81, 156)" stop-opacity="1"/><stop offset="100%" stop-color="rgb(8, 48, 107)" stop-opacity="1"/></linearGradient><linearGradient x1="0" x2="0" y1="1" y2="0" id="gcb660e-cb2099bb"><stop offset="0%" stop-color="rgb(255, 245, 240)" stop-opacity="1"/><stop offset="12.5%" stop-color="rgb(254, 224, 210)" stop-opacity="1"/><stop offset="25%" stop-color="rgb(252, 187, 161)" stop-opacity="1"/><stop offset="37.5%" stop-color="rgb(252, 146, 114)" stop-opacity="1"/><stop offset="50%" stop-color="rgb(251, 106, 74)" stop-opacity="1"/><stop offset="62.5%" stop-color="rgb(239, 59, 44)" stop-opacity="1"/><stop offset="75%" stop-color="rgb(203, 24, 29)" stop-opacity="1"/><stop offset="87.5%" stop-color="rgb(165, 15, 21)" stop-opacity="1"/><stop offset="100%" stop-color="rgb(103, 0, 13)" stop-opacity="1"/></linearGradient></g><g class="patterns"/></defs><g class="bglayer"><rect class="bg" x="80" y="100" width="479" height="220" style="fill: rgb(229, 236, 246); fill-opacity: 1; stroke-width: 0;"/></g><g class="layer-below"><g class="imagelayer"/><g class="shapelayer"/></g><g class="cartesianlayer"><g class="subplot xy"><g class="layer-subplot"><g class="shapelayer"/><g class="imagelayer"/></g><g class="minor-gridlayer"><g class="x"/><g class="y"/></g><g class="gridlayer"><g class="x"><path class="xgrid crisp" transform="translate(174.57999999999998,0)" d="M0,100v220" style="stroke: rgb(255, 255, 255); stroke-opacity: 1; stroke-width: 1px;"/><path class="xgrid crisp" transform="translate(286.06,0)" d="M0,100v220" style="stroke: rgb(255, 255, 255); stroke-opacity: 1; stroke-width: 1px;"/><path class="xgrid crisp" transform="translate(397.53,0)" d="M0,100v220" style="stroke: rgb(255, 255, 255); stroke-opacity: 1; stroke-width: 1px;"/><path class="xgrid crisp" transform="translate(509.01,0)" d="M0,100v220" style="stroke: rgb(255, 255, 255); stroke-opacity: 1; stroke-width: 1px;"/></g><g class="y"><path class="ygrid crisp" transform="translate(0,310.69)" d="M80,0h479" style="stroke: rgb(255, 255, 255); stroke-opacity: 1; stroke-width: 1px;"/><path class="ygrid crisp" transform="translate(0,256.26)" d="M80,0h479" style="stroke: rgb(255, 255, 255); stroke-opacity: 1; stroke-width: 1px;"/><path class="ygrid crisp" transform="translate(0,201.84)" d="M80,0h479" style="stroke: rgb(255, 255, 255); stroke-opacity: 1; stroke-width: 1px;"/><path class="ygrid crisp" transform="translate(0,147.41)" d="M80,0h479" style="stroke: rgb(255, 255, 255); stroke-opacity: 1; stroke-width: 1px;"/></g></g><g class="zerolinelayer"/><path class="xlines-below"/><path class="ylines-below"/><g class="overlines-below"/><g class="xaxislayer-below"/><g class="yaxislayer-below"/><g class="overaxes-below"/><g class="plot" transform="translate(80,100)" clip-path="url(#clipcb660exyplot)"><g class="scatterlayer mlayer"><g class="trace scatter tracef85a90" style="stroke-miterlimit: 2; opacity: 1;"><g class="fills"/><g class="errorbars"/><g class="lines"/><g class="points"><path class="point" transform="translate(429.01,74.62)" d="M3,0A3,3 0 1,1 0,-3A3,3 0 0,1 3,0Z" style="opacity: 1; stroke-width: 0.5px; fill: rgb(247, 251, 255); fill-opacity: 1; stroke: rgb(128, 128, 128); stroke-opacity: 1;"/><path class="point" transform="translate(206.06,205.25)" d="M3,0A3,3 0 1,1 0,-3A3,3 0 0,1 3,0Z" style="opacity: 1; stroke-width: 0.5px; fill: rgb(242, 248, 253); fill-opacity: 1; stroke: rgb(128, 128, 128); stroke-opacity: 1;"/><path class="point" transform="translate(429.01,36.52)" d="M3,0A3,3 0 1,1 0,-3A3,3 0 0,1 3,0Z" style="opacity: 1; stroke-width: 0.5px; fill: rgb(237, 244, 252); fill-opacity: 1; stroke: rgb(128, 128, 128); stroke-opacity: 1;"/><path class="point" transform="translate(395.56,101.84)" d="M3,0A3,3 0 1,1 0,-3A3,3 0 0,1 3,0Z" style="opacity: 1; stroke-width: 0.5px; fill: rgb(232, 241, 250); fill-opacity: 1; stroke: rgb(128, 128, 128); stroke-opacity: 1;"/><path class="point" transform="translate(440.15,47.41)" d="M3,0A3,3 0 1,1 0,-3A3,3 0 0,1 3,0Z" style="opacity: 1; stroke-width: 0.5px; fill: rgb(226, 238, 248); fill-opacity: 1; stroke: rgb(128, 128, 128); stroke-opacity: 1;"/><path class="point" transform="translate(429.01,41.96)" d="M3,0A3,3 0 1,1 0,-3A3,3 0 0,1 3,0Z" style="opacity: 1; stroke-width: 0.5px; fill: rgb(221, 235, 247); fill-opacity: 1; stroke: rgb(128, 128, 128); stroke-opacity: 1;"/><path class="point" transform="translate(429.01,63.74)" d="M3,0A3,3 0 1,1 0,-3A3,3 0 0,1 3,0Z" style="opacity: 1; stroke-width: 0.5px; fill: rgb(216, 231, 245); fill-opacity: 1; stroke: rgb(128, 128, 128); stroke-opacity: 1;"/><path class="point" transform="translate(172.62,139.94)" d="M3,0A3,3 0 1,1 0,-3A3,3 0 0,1 3,0Z" style="opacity: 1; stroke-width: 0.5px; fill: rgb(212, 228, 244); fill-opacity: 1; stroke: rgb(128, 128, 128); stroke-opacity: 1;"/><path class="point" transform="translate(406.71,80.06)" d="M3,0A3,3 0 1,1 0,-3A3,3 0 0,1 3,0Z" style="opacity: 1; stroke-width: 0.5px; fill: rgb(207, 225, 242); fill-opacity: 1; stroke: rgb(128, 128, 128); stroke-opacity: 1;"/><path class="point" transform="translate(417.86,63.74)" d="M3,0A3,3 0 1,1 0,-3A3,3 0 0,1 3,0Z" style="opacity: 1; stroke-width: 0.5px; fill: rgb(202, 221, 240); fill-opacity: 1; stroke: rgb(128, 128, 128); stroke-opacity: 1;"/><path class="point" transform="translate(72.29,205.25)" d="M3,0A3,3 0 1,1 0,-3A3,3 0 0,1 3,0Z" style="opacity: 1; stroke-width: 0.5px; fill: rgb(196, 218, 238); fill-opacity: 1; stroke: rgb(128, 128, 128); stroke-opacity: 1;"/><path class="point" transform="translate(429.01,20.19)" d="M3,0A3,3 0 1,1 0,-3A3,3 0 0,1 3,0Z" style="opacity: 1; stroke-width: 0.5px; fill: rgb(188, 215, 235); fill-opacity: 1; stroke: rgb(128, 128, 128); stroke-opacity: 1;"/><path class="point" transform="translate(429.01,20.19)" d="M3,0A3,3 0 1,1 0,-3A3,3 0 0,1 3,0Z" style="opacity: 1; stroke-width: 0.5px; fill: rgb(180, 211, 233); fill-opacity: 1; stroke: rgb(128, 128, 128); stroke-opacity: 1;"/><path class="point" transform="translate(429.01,25.64)" d="M3,0A3,3 0 1,1 0,-3A3,3 0 0,1 3,0Z" style="opacity: 1; stroke-width: 0.5px; fill: rgb(163, 204, 227); fill-opacity: 1; stroke: rgb(128, 128, 128); stroke-opacity: 1;"/><path class="point" transform="translate(429.01,41.96)" d="M3,0A3,3 0 1,1 0,-3A3,3 0 0,1 3,0Z" style="opacity: 1; stroke-width: 0.5px; fill: rgb(144, 194, 222); fill-opacity: 1; stroke: rgb(128, 128, 128); stroke-opacity: 1;"/><path class="point" transform="translate(440.15,47.41)" d="M3,0A3,3 0 1,1 0,-3A3,3 0 0,1 3,0Z" style="opacity: 1; stroke-width: 0.5px; fill: rgb(133, 188, 220); fill-opacity: 1; stroke: rgb(128, 128, 128); stroke-opacity: 1;"/><path class="point" transform="translate(27.7,194.36)" d="M3,0A3,3 0 1,1 0,-3A3,3 0 0,1 3,0Z" style="opacity: 1; stroke-width: 0.5px; fill: rgb(123, 183, 217); fill-opacity: 1; stroke: rgb(128, 128, 128); stroke-opacity: 1;"/><path class="point" transform="translate(429.01,47.41)" d="M3,0A3,3 0 1,1 0,-3A3,3 0 0,1 3,0Z" style="opacity: 1; stroke-width: 0.5px; fill: rgb(112, 177, 215); fill-opacity: 1; stroke: rgb(128, 128, 128); stroke-opacity: 1;"/><path class="point" transform="translate(429.01,41.96)" d="M3,0A3,3 0 1,1 0,-3A3,3 0 0,1 3,0Z" style="opacity: 1; stroke-width: 0.5px; fill: rgb(103, 171, 212); fill-opacity: 1; stroke: rgb(128, 128, 128); stroke-opacity: 1;"/><path class="point" transform="translate(440.15,36.52)" d="M3,0A3,3 0 1,1 0,-3A3,3 0 0,1 3,0Z" style="opacity: 1; stroke-width: 0.5px; fill: rgb(94, 165, 209); fill-opacity: 1; stroke: rgb(128, 128, 128); stroke-opacity: 1;"/><path class="point" transform="translate(440.15,47.41)" d="M3,0A3,3 0 1,1 0,-3A3,3 0 0,1 3,0Z" style="opacity: 1; stroke-width: 0.5px; fill: rgb(86, 160, 206); fill-opacity: 1; stroke: rgb(128, 128, 128); stroke-opacity: 1;"/><path class="point" transform="translate(206.06,194.36)" d="M3,0A3,3 0 1,1 0,-3A3,3 0 0,1 3,0Z" style="opacity: 1; stroke-width: 0.5px; fill: rgb(78, 154, 203); fill-opacity: 1; stroke: rgb(128, 128, 128); stroke-opacity: 1;"/><path class="point" transform="translate(440.15,52.85)" d="M3,0A3,3 0 1,1 0,-3A3,3 0 0,1 3,0Z" style="opacity: 1; stroke-width: 0.5px; fill: rgb(69, 148, 199); fill-opacity: 1; stroke: rgb(128, 128, 128); stroke-opacity: 1;"/><path class="point" transform="translate(440.15,36.52)" d="M3,0A3,3 0 1,1 0,-3A3,3 0 0,1 3,0Z" style="opacity: 1; stroke-width: 0.5px; fill: rgb(62, 142, 196); fill-opacity: 1; stroke: rgb(128, 128, 128); stroke-opacity: 1;"/><path class="point" transform="translate(429.01,52.85)" d="M3,0A3,3 0 1,1 0,-3A3,3 0 0,1 3,0Z" style="opacity: 1; stroke-width: 0.5px; fill: rgb(55, 135, 192); fill-opacity: 1; stroke: rgb(128, 128, 128); stroke-opacity: 1;"/><path class="point" transform="translate(429.01,36.52)" d="M3,0A3,3 0 1,1 0,-3A3,3 0 0,1 3,0Z" style="opacity: 1; stroke-width: 0.5px; fill: rgb(48, 128, 189); fill-opacity: 1; stroke: rgb(128, 128, 128); stroke-opacity: 1;"/><path class="point" transform="translate(440.15,41.96)" d="M3,0A3,3 0 1,1 0,-3A3,3 0 0,1 3,0Z" style="opacity: 1; stroke-width: 0.5px; fill: rgb(41, 121, 185); fill-opacity: 1; stroke: rgb(128, 128, 128); stroke-opacity: 1;"/><path class="point" transform="translate(429.01,36.52)" d="M3,0A3,3 0 1,1 0,-3A3,3 0 0,1 3,0Z" style="opacity: 1; stroke-width: 0.5px; fill: rgb(35, 115, 182); fill-opacity: 1; stroke: rgb(128, 128, 128); stroke-opacity: 1;"/><path class="point" transform="translate(429.01,74.62)" d="M3,0A3,3 0 1,1 0,-3A3,3 0 0,1 3,0Z" style="opacity: 1; stroke-width: 0.5px; fill: rgb(29, 108, 177); fill-opacity: 1; stroke: rgb(128, 128, 128); stroke-opacity: 1;"/><path class="point" transform="translate(440.15,47.41)" d="M3,0A3,3 0 1,1 0,-3A3,3 0 0,1 3,0Z" style="opacity: 1; stroke-width: 0.5px; fill: rgb(24, 102, 172); fill-opacity: 1; stroke: rgb(128, 128, 128); stroke-opacity: 1;"/><path class="point" transform="translate(429.01,36.52)" d="M3,0A3,3 0 1,1 0,-3A3,3 0 0,1 3,0Z" style="opacity: 1; stroke-width: 0.5px; fill: rgb(14, 88, 162); fill-opacity: 1; stroke: rgb(128, 128, 128); stroke-opacity: 1;"/><path class="point" transform="translate(440.15,31.08)" d="M3,0A3,3 0 1,1 0,-3A3,3 0 0,1 3,0Z" style="opacity: 1; stroke-width: 0.5px; fill: rgb(9, 82, 157); fill-opacity: 1; stroke: rgb(128, 128, 128); stroke-opacity: 1;"/><path class="point" transform="translate(429.01,31.08)" d="M3,0A3,3 0 1,1 0,-3A3,3 0 0,1 3,0Z" style="opacity: 1; stroke-width: 0.5px; fill: rgb(8, 75, 147); fill-opacity: 1; stroke: rgb(128, 128, 128); stroke-opacity: 1;"/><path class="point" transform="translate(440.15,41.96)" d="M3,0A3,3 0 1,1 0,-3A3,3 0 0,1 3,0Z" style="opacity: 1; stroke-width: 0.5px; fill: rgb(8, 68, 137); fill-opacity: 1; stroke: rgb(128, 128, 128); stroke-opacity: 1;"/><path class="point" transform="translate(384.42,129.05)" d="M3,0A3,3 0 1,1 0,-3A3,3 0 0,1 3,0Z" style="opacity: 1; stroke-width: 0.5px; fill: rgb(8, 62, 127); fill-opacity: 1; stroke: rgb(128, 128, 128); stroke-opacity: 1;"/><path class="point" transform="translate(429.01,47.41)" d="M3,0A3,3 0 1,1 0,-3A3,3 0 0,1 3,0Z" style="opacity: 1; stroke-width: 0.5px; fill: rgb(8, 48, 107); fill-opacity: 1; stroke: rgb(128, 128, 128); stroke-opacity: 1;"/></g><g class="text"/></g><g class="trace scatter trace2099bb" style="stroke-miterlimit: 2; opacity: 1;"><g class="fills"/><g class="errorbars"/><g class="lines"/><g class="points"><path class="point" transform="translate(440.15,25.64)" d="M3,0A3,3 0 1,1 0,-3A3,3 0 0,1 3,0Z" style="opacity: 1; stroke-width: 0.5px; fill: rgb(255, 245, 240); fill-opacity: 1; stroke: rgb(128, 128, 128); stroke-opacity: 1;"/><path class="point" transform="translate(429.01,14.75)" d="M3,0A3,3 0 1,1 0,-3A3,3 0 0,1 3,0Z" style="opacity: 1; stroke-width: 0.5px; fill: rgb(254, 232, 221); fill-opacity: 1; stroke: rgb(128, 128, 128); stroke-opacity: 1;"/><path class="point" transform="translate(451.3,41.96)" d="M3,0A3,3 0 1,1 0,-3A3,3 0 0,1 3,0Z" style="opacity: 1; stroke-width: 0.5px; fill: rgb(200, 23, 28); fill-opacity: 1; stroke: rgb(128, 128, 128); stroke-opacity: 1;"/><path class="point" transform="translate(440.15,25.64)" d="M3,0A3,3 0 1,1 0,-3A3,3 0 0,1 3,0Z" style="opacity: 1; stroke-width: 0.5px; fill: rgb(103, 0, 13); fill-opacity: 1; stroke: rgb(128, 128, 128); stroke-opacity: 1;"/></g><g class="text"/></g></g></g><g class="overplot"/><path class="xlines-above crisp" d="M0,0" style="fill: none;"/><path class="ylines-above crisp" d="M0,0" style="fill: none;"/><g class="overlines-above"/><g class="xaxislayer-above"><g class="xtick"><text text-anchor="middle" x="0" y="339" transform="translate(174.57999999999998,0)" style="font-family: 'Open Sans', verdana, arial, sans-serif; font-size: 18px; fill: rgb(42, 63, 95); fill-opacity: 1; white-space: pre; opacity: 1;">0.2</text></g><g class="xtick"><text text-anchor="middle" x="0" y="339" style="font-family: 'Open Sans', verdana, arial, sans-serif; font-size: 18px; fill: rgb(42, 63, 95); fill-opacity: 1; white-space: pre; opacity: 1;" transform="translate(286.06,0)">0.3</text></g><g class="xtick"><text text-anchor="middle" x="0" y="339" style="font-family: 'Open Sans', verdana, arial, sans-serif; font-size: 18px; fill: rgb(42, 63, 95); fill-opacity: 1; white-space: pre; opacity: 1;" transform="translate(397.53,0)">0.4</text></g><g class="xtick"><text text-anchor="middle" x="0" y="339" style="font-family: 'Open Sans', verdana, arial, sans-serif; font-size: 18px; fill: rgb(42, 63, 95); fill-opacity: 1; white-space: pre; opacity: 1;" transform="translate(509.01,0)">0.5</text></g></g><g class="yaxislayer-above"><g class="ytick"><text text-anchor="end" x="79" y="6.3" transform="translate(0,310.69)" style="font-family: 'Open Sans', verdana, arial, sans-serif; font-size: 18px; fill: rgb(42, 63, 95); fill-opacity: 1; white-space: pre; opacity: 1;">0.3</text></g><g class="ytick"><text text-anchor="end" x="79" y="6.3" style="font-family: 'Open Sans', verdana, arial, sans-serif; font-size: 18px; fill: rgb(42, 63, 95); fill-opacity: 1; white-space: pre; opacity: 1;" transform="translate(0,256.26)">0.4</text></g><g class="ytick"><text text-anchor="end" x="79" y="6.3" style="font-family: 'Open Sans', verdana, arial, sans-serif; font-size: 18px; fill: rgb(42, 63, 95); fill-opacity: 1; white-space: pre; opacity: 1;" transform="translate(0,201.84)">0.5</text></g><g class="ytick"><text text-anchor="end" x="79" y="6.3" style="font-family: 'Open Sans', verdana, arial, sans-serif; font-size: 18px; fill: rgb(42, 63, 95); fill-opacity: 1; white-space: pre; opacity: 1;" transform="translate(0,147.41)">0.6</text></g></g><g class="overaxes-above"/></g></g><g class="polarlayer"/><g class="smithlayer"/><g class="ternarylayer"/><g class="geolayer"/><g class="funnelarealayer"/><g class="pielayer"/><g class="iciclelayer"/><g class="treemaplayer"/><g class="sunburstlayer"/><g class="glimages"/><defs id="topdefs-cb660e"><g class="clips"/></defs><g class="layer-above"><g class="imagelayer"/><g class="shapelayer"/></g><g class="infolayer"><g class="cbf85a90 colorbar" transform="translate(80,100)"><rect class="cbbg" x="488.5" y="0" width="73.921875" height="221" style="fill: rgb(0, 0, 0); fill-opacity: 0; stroke: rgb(68, 68, 68); stroke-opacity: 1; stroke-width: 0;"/><g class="cbfills" transform="translate(0,40)"><rect class="cbfill gradient_filled" x="499" y="0" width="30" height="170" style="fill: url('#gcb660e-cbf85a90');"/></g><g class="cblines" transform="translate(0,40)"/><g class="cbaxis crisp" transform="translate(0,-100)"><g class="ycbf85a90tick"><text text-anchor="start" x="533.6" y="6.3" transform="translate(0,310)" style="font-family: 'Open Sans', verdana, arial, sans-serif; font-size: 18px; fill: rgb(42, 63, 95); fill-opacity: 1; white-space: pre; opacity: 1;">0</text></g><g class="ycbf85a90tick"><text text-anchor="start" x="533.6" y="6.3" style="font-family: 'Open Sans', verdana, arial, sans-serif; font-size: 18px; fill: rgb(42, 63, 95); fill-opacity: 1; white-space: pre; opacity: 1;" transform="translate(0,266.40999999999997)">10</text></g><g class="ycbf85a90tick"><text text-anchor="start" x="533.6" y="6.3" style="font-family: 'Open Sans', verdana, arial, sans-serif; font-size: 18px; fill: rgb(42, 63, 95); fill-opacity: 1; white-space: pre; opacity: 1;" transform="translate(0,222.82)">20</text></g><g class="ycbf85a90tick"><text text-anchor="start" x="533.6" y="6.3" style="font-family: 'Open Sans', verdana, arial, sans-serif; font-size: 18px; fill: rgb(42, 63, 95); fill-opacity: 1; white-space: pre; opacity: 1;" transform="translate(0,179.23)">30</text></g></g><g class="cbtitleunshift" transform="translate(-80,-100)"><g class="cbtitle" transform="translate(-0.5,-0.5)"><text class="ycbf85a90title" x="578.5799999999999" y="129.5" text-anchor="start" style="font-family: 'Open Sans', verdana, arial, sans-serif; font-size: 22px; fill: rgb(42, 63, 95); opacity: 1; font-weight: normal; white-space: pre;">Trial</text></g></g><rect class="cboutline" x="499" y="40" width="30" height="170" style="stroke: rgb(68, 68, 68); stroke-opacity: 1; fill: none; stroke-width: 1;"/></g><g class="cb2099bb colorbar" transform="translate(80,100)"><rect class="cbbg" x="526.5" y="0" width="180.578125" height="221" style="fill: rgb(0, 0, 0); fill-opacity: 0; stroke: rgb(68, 68, 68); stroke-opacity: 1; stroke-width: 0;"/><g class="cbfills" transform="translate(0,40)"><rect class="cbfill gradient_filled" x="567" y="0" width="30" height="170" style="fill: url('#gcb660e-cb2099bb');"/></g><g class="cblines" transform="translate(0,40)"/><g class="cbaxis crisp" transform="translate(0,-100)"><g class="ycb2099bbtick"><text text-anchor="start" x="601.6" y="6.3" transform="translate(0,296.4)" style="font-family: 'Open Sans', verdana, arial, sans-serif; font-size: 18px; fill: rgb(42, 63, 95); fill-opacity: 1; white-space: pre; opacity: 1;">15</text></g><g class="ycb2099bbtick"><text text-anchor="start" x="601.6" y="6.3" style="font-family: 'Open Sans', verdana, arial, sans-serif; font-size: 18px; fill: rgb(42, 63, 95); fill-opacity: 1; white-space: pre; opacity: 1;" transform="translate(0,262.4)">20</text></g><g class="ycb2099bbtick"><text text-anchor="start" x="601.6" y="6.3" style="font-family: 'Open Sans', verdana, arial, sans-serif; font-size: 18px; fill: rgb(42, 63, 95); fill-opacity: 1; white-space: pre; opacity: 1;" transform="translate(0,228.4)">25</text></g><g class="ycb2099bbtick"><text text-anchor="start" x="601.6" y="6.3" style="font-family: 'Open Sans', verdana, arial, sans-serif; font-size: 18px; fill: rgb(42, 63, 95); fill-opacity: 1; white-space: pre; opacity: 1;" transform="translate(0,194.4)">30</text></g><g class="ycb2099bbtick"><text text-anchor="start" x="601.6" y="6.3" style="font-family: 'Open Sans', verdana, arial, sans-serif; font-size: 18px; fill: rgb(42, 63, 95); fill-opacity: 1; white-space: pre; opacity: 1;" transform="translate(0,160.4)">35</text></g></g><g class="cbtitleunshift" transform="translate(-80,-100)"><g class="cbtitle" transform="translate(-0.5,-0.5)"><text class="ycb2099bbtitle" x="646.9000000000001" y="129.5" text-anchor="start" style="font-family: 'Open Sans', verdana, arial, sans-serif; font-size: 22px; fill: rgb(42, 63, 95); opacity: 1; font-weight: normal; white-space: pre;">Best Trial</text></g></g><rect class="cboutline" x="567" y="40" width="30" height="170" style="stroke: rgb(68, 68, 68); stroke-opacity: 1; fill: none; stroke-width: 1;"/></g><g class="g-gtitle"><text class="gtitle" x="40" y="50" text-anchor="start" dy="0em" style="font-family: 'Open Sans', verdana, arial, sans-serif; font-size: 25px; fill: rgb(42, 63, 95); opacity: 1; font-weight: normal; white-space: pre;">covertype/mlp</text></g><g class="g-xtitle"><text class="xtitle" x="319.5" y="372.9" text-anchor="middle" style="font-family: 'Open Sans', verdana, arial, sans-serif; font-size: 22px; fill: rgb(42, 63, 95); opacity: 1; font-weight: normal; white-space: pre;">H-mean Test Acc. (Small)</text></g><g class="g-ytitle"><text class="ytitle" transform="rotate(-90,20.459375,210)" x="20.459375" y="210" text-anchor="middle" style="font-family: 'Open Sans', verdana, arial, sans-serif; font-size: 22px; fill: rgb(42, 63, 95); opacity: 1; font-weight: normal; white-space: pre;">H-mean Test Acc. (Large)</text></g></g></svg>
