<svg class="main-svg" xmlns="http://www.w3.org/2000/svg" xmlns:xlink="http://www.w3.org/1999/xlink" width="1200" height="400" style="" viewBox="0 0 1200 400"><rect x="0" y="0" width="1200" height="400" style="fill: rgb(255, 255, 255); fill-opacity: 1;"/><defs id="defs-ff855e"><g class="clips"><clipPath id="clipff855exyplot" class="plotclip"><rect width="323.84" height="220"/></clipPath><clipPath id="clipff855ex2y2plot" class="plotclip"><rect width="323.84" height="220"/></clipPath><clipPath id="clipff855ex3y3plot" class="plotclip"><rect width="323.84" height="220"/></clipPath><clipPath class="axesclip" id="clipff855ex"><rect x="80" y="0" width="323.84" height="400"/></clipPath><clipPath class="axesclip" id="clipff855ey"><rect x="0" y="100" width="1200" height="220"/></clipPath><clipPath class="axesclip" id="clipff855exy"><rect x="80" y="100" width="323.84" height="220"/></clipPath><clipPath class="axesclip" id="clipff855ey2"><rect x="0" y="100" width="1200" height="220"/></clipPath><clipPath class="axesclip" id="clipff855exy2"><rect x="80" y="100" width="323.84" height="220"/></clipPath><clipPath class="axesclip" id="clipff855ey3"><rect x="0" y="100" width="1200" height="220"/></clipPath><clipPath class="axesclip" id="clipff855exy3"><rect x="80" y="100" width="323.84" height="220"/></clipPath><clipPath class="axesclip" id="clipff855ex2"><rect x="424.08" y="0" width="323.84" height="400"/></clipPath><clipPath class="axesclip" id="clipff855ex2y"><rect x="424.08" y="100" width="323.84" height="220"/></clipPath><clipPath class="axesclip" id="clipff855ex2y2"><rect x="424.08" y="100" width="323.84" height="220"/></clipPath><clipPath class="axesclip" id="clipff855ex2y3"><rect x="424.08" y="100" width="323.84" height="220"/></clipPath><clipPath class="axesclip" id="clipff855ex3"><rect x="768.16" y="0" width="323.84" height="400"/></clipPath><clipPath class="axesclip" id="clipff855ex3y"><rect x="768.16" y="100" width="323.84" height="220"/></clipPath><clipPath class="axesclip" id="clipff855ex3y2"><rect x="768.16" y="100" width="323.84" height="220"/></clipPath><clipPath class="axesclip" id="clipff855ex3y3"><rect x="768.16" y="100" width="323.84" height="220"/></clipPath></g><g class="gradients"><linearGradient x1="0" x2="0" y1="1" y2="0" id="gff855e-cbcoloraxis"><stop offset="0%" stop-color="rgb(0, 0, 255)" stop-opacity="1"/><stop offset="100%" stop-color="rgb(255, 0, 0)" stop-opacity="1"/></linearGradient></g><g class="patterns"/></defs><g class="bglayer"><rect class="bg" x="80" y="100" width="323.84" height="220" style="fill: rgb(229, 236, 246); fill-opacity: 1; stroke-width: 0;"/><rect class="bg" x="424.08" y="100" width="323.84" height="220" style="fill: rgb(229, 236, 246); fill-opacity: 1; stroke-width: 0;"/><rect class="bg" x="768.16" y="100" width="323.84" height="220" style="fill: rgb(229, 236, 246); fill-opacity: 1; stroke-width: 0;"/></g><g class="layer-below"><g class="imagelayer"/><g class="shapelayer"/></g><g class="cartesianlayer"><g class="subplot xy"><g class="layer-subplot"><g class="shapelayer"/><g class="imagelayer"/></g><g class="minor-gridlayer"><g class="x"/><g class="y"/></g><g class="gridlayer"><g class="x"><path class="xgrid crisp" transform="translate(238.28,0)" d="M0,100v220" style="stroke: rgb(255, 255, 255); stroke-opacity: 1; stroke-width: 1px;"/><path class="xgrid crisp" transform="translate(383.9,0)" d="M0,100v220" style="stroke: rgb(255, 255, 255); stroke-opacity: 1; stroke-width: 1px;"/></g><g class="y"><path class="ygrid crisp" transform="translate(0,254.45)" d="M80,0h323.84" style="stroke: rgb(255, 255, 255); stroke-opacity: 1; stroke-width: 1px;"/><path class="ygrid crisp" transform="translate(0,203.65)" d="M80,0h323.84" style="stroke: rgb(255, 255, 255); stroke-opacity: 1; stroke-width: 1px;"/><path class="ygrid crisp" transform="translate(0,152.85)" d="M80,0h323.84" style="stroke: rgb(255, 255, 255); stroke-opacity: 1; stroke-width: 1px;"/><path class="ygrid crisp" transform="translate(0,102.05)" d="M80,0h323.84" style="stroke: rgb(255, 255, 255); stroke-opacity: 1; stroke-width: 1px;"/></g></g><g class="zerolinelayer"><path class="xzl zl crisp" transform="translate(92.66,0)" d="M0,100v220" style="stroke: rgb(255, 255, 255); stroke-opacity: 1; stroke-width: 2px;"/><path class="yzl zl crisp" transform="translate(0,305.25)" d="M80,0h323.84" style="stroke: rgb(255, 255, 255); stroke-opacity: 1; stroke-width: 2px;"/></g><path class="xlines-below"/><path class="ylines-below"/><g class="overlines-below"/><g class="xaxislayer-below"/><g class="yaxislayer-below"/><g class="overaxes-below"/><g class="plot" transform="translate(80,100)" clip-path="url(#clipff855exyplot)"><g class="scatterlayer mlayer"><g class="trace scatter trace0cd2cb" style="stroke-miterlimit: 2; opacity: 1;"><g class="fills"/><g class="errorbars"/><g class="lines"/><g class="points"><path class="point plotly-customdata" transform="translate(19.94,205.25)" d="M3,0A3,3 0 1,1 0,-3A3,3 0 0,1 3,0Z" style="opacity: 1; stroke-width: 0px; fill: rgb(120, 0, 135); fill-opacity: 1;"/><path class="point plotly-customdata" transform="translate(27.22,205.25)" d="M3,0A3,3 0 1,1 0,-3A3,3 0 0,1 3,0Z" style="opacity: 1; stroke-width: 0px; fill: rgb(142, 0, 113); fill-opacity: 1;"/><path class="point plotly-customdata" transform="translate(34.5,205.25)" d="M3,0A3,3 0 1,1 0,-3A3,3 0 0,1 3,0Z" style="opacity: 1; stroke-width: 0px; fill: rgb(154, 0, 101); fill-opacity: 1;"/><path class="point plotly-customdata" transform="translate(41.78,205.25)" d="M3,0A3,3 0 1,1 0,-3A3,3 0 0,1 3,0Z" style="opacity: 1; stroke-width: 0px; fill: rgb(164, 0, 91); fill-opacity: 1;"/><path class="point plotly-customdata" transform="translate(85.47,205.25)" d="M3,0A3,3 0 1,1 0,-3A3,3 0 0,1 3,0Z" style="opacity: 1; stroke-width: 0px; fill: rgb(205, 0, 50); fill-opacity: 1;"/><path class="point plotly-customdata" transform="translate(158.28,205.25)" d="M3,0A3,3 0 1,1 0,-3A3,3 0 0,1 3,0Z" style="opacity: 1; stroke-width: 0px; fill: rgb(232, 0, 23); fill-opacity: 1;"/><path class="point plotly-customdata" transform="translate(231.09,205.25)" d="M3,0A3,3 0 1,1 0,-3A3,3 0 0,1 3,0Z" style="opacity: 1; stroke-width: 0px; fill: rgb(242, 0, 13); fill-opacity: 1;"/><path class="point plotly-customdata" transform="translate(303.9,205.25)" d="M3,0A3,3 0 1,1 0,-3A3,3 0 0,1 3,0Z" style="opacity: 1; stroke-width: 0px; fill: rgb(254, 0, 1); fill-opacity: 1;"/><path class="point plotly-customdata" transform="translate(19.94,198.9)" d="M3,0A3,3 0 1,1 0,-3A3,3 0 0,1 3,0Z" style="opacity: 1; stroke-width: 0px; fill: rgb(114, 0, 141); fill-opacity: 1;"/><path class="point plotly-customdata" transform="translate(19.94,192.55)" d="M3,0A3,3 0 1,1 0,-3A3,3 0 0,1 3,0Z" style="opacity: 1; stroke-width: 0px; fill: rgb(120, 0, 135); fill-opacity: 1;"/><path class="point plotly-customdata" transform="translate(19.94,186.2)" d="M3,0A3,3 0 1,1 0,-3A3,3 0 0,1 3,0Z" style="opacity: 1; stroke-width: 0px; fill: rgb(115, 0, 140); fill-opacity: 1;"/><path class="point plotly-customdata" transform="translate(19.94,179.85)" d="M3,0A3,3 0 1,1 0,-3A3,3 0 0,1 3,0Z" style="opacity: 1; stroke-width: 0px; fill: rgb(117, 0, 138); fill-opacity: 1;"/><path class="point plotly-customdata" transform="translate(19.94,141.75)" d="M3,0A3,3 0 1,1 0,-3A3,3 0 0,1 3,0Z" style="opacity: 1; stroke-width: 0px; fill: rgb(116, 0, 139); fill-opacity: 1;"/><path class="point plotly-customdata" transform="translate(19.94,78.25)" d="M3,0A3,3 0 1,1 0,-3A3,3 0 0,1 3,0Z" style="opacity: 1; stroke-width: 0px; fill: rgb(117, 0, 138); fill-opacity: 1;"/><path class="point plotly-customdata" transform="translate(19.94,14.75)" d="M3,0A3,3 0 1,1 0,-3A3,3 0 0,1 3,0Z" style="opacity: 1; stroke-width: 0px; fill: rgb(120, 0, 135); fill-opacity: 1;"/><path class="point plotly-customdata" transform="translate(27.22,198.9)" d="M3,0A3,3 0 1,1 0,-3A3,3 0 0,1 3,0Z" style="opacity: 1; stroke-width: 0px; fill: rgb(146, 0, 109); fill-opacity: 1;"/><path class="point plotly-customdata" transform="translate(27.22,192.55)" d="M3,0A3,3 0 1,1 0,-3A3,3 0 0,1 3,0Z" style="opacity: 1; stroke-width: 0px; fill: rgb(139, 0, 116); fill-opacity: 1;"/><path class="point plotly-customdata" transform="translate(27.22,186.2)" d="M3,0A3,3 0 1,1 0,-3A3,3 0 0,1 3,0Z" style="opacity: 1; stroke-width: 0px; fill: rgb(138, 0, 117); fill-opacity: 1;"/><path class="point plotly-customdata" transform="translate(27.22,179.85)" d="M3,0A3,3 0 1,1 0,-3A3,3 0 0,1 3,0Z" style="opacity: 1; stroke-width: 0px; fill: rgb(148, 0, 107); fill-opacity: 1;"/><path class="point plotly-customdata" transform="translate(27.22,141.75)" d="M3,0A3,3 0 1,1 0,-3A3,3 0 0,1 3,0Z" style="opacity: 1; stroke-width: 0px; fill: rgb(145, 0, 110); fill-opacity: 1;"/><path class="point plotly-customdata" transform="translate(27.22,78.25)" d="M3,0A3,3 0 1,1 0,-3A3,3 0 0,1 3,0Z" style="opacity: 1; stroke-width: 0px; fill: rgb(137, 0, 118); fill-opacity: 1;"/><path class="point plotly-customdata" transform="translate(27.22,14.75)" d="M3,0A3,3 0 1,1 0,-3A3,3 0 0,1 3,0Z" style="opacity: 1; stroke-width: 0px; fill: rgb(141, 0, 114); fill-opacity: 1;"/><path class="point plotly-customdata" transform="translate(34.5,198.9)" d="M3,0A3,3 0 1,1 0,-3A3,3 0 0,1 3,0Z" style="opacity: 1; stroke-width: 0px; fill: rgb(154, 0, 101); fill-opacity: 1;"/><path class="point plotly-customdata" transform="translate(34.5,192.55)" d="M3,0A3,3 0 1,1 0,-3A3,3 0 0,1 3,0Z" style="opacity: 1; stroke-width: 0px; fill: rgb(154, 0, 101); fill-opacity: 1;"/><path class="point plotly-customdata" transform="translate(34.5,186.2)" d="M3,0A3,3 0 1,1 0,-3A3,3 0 0,1 3,0Z" style="opacity: 1; stroke-width: 0px; fill: rgb(156, 0, 99); fill-opacity: 1;"/><path class="point plotly-customdata" transform="translate(34.5,179.85)" d="M3,0A3,3 0 1,1 0,-3A3,3 0 0,1 3,0Z" style="opacity: 1; stroke-width: 0px; fill: rgb(156, 0, 99); fill-opacity: 1;"/><path class="point plotly-customdata" transform="translate(34.5,141.75)" d="M3,0A3,3 0 1,1 0,-3A3,3 0 0,1 3,0Z" style="opacity: 1; stroke-width: 0px; fill: rgb(156, 0, 99); fill-opacity: 1;"/><path class="point plotly-customdata" transform="translate(34.5,78.25)" d="M3,0A3,3 0 1,1 0,-3A3,3 0 0,1 3,0Z" style="opacity: 1; stroke-width: 0px; fill: rgb(157, 0, 98); fill-opacity: 1;"/><path class="point plotly-customdata" transform="translate(34.5,14.75)" d="M3,0A3,3 0 1,1 0,-3A3,3 0 0,1 3,0Z" style="opacity: 1; stroke-width: 0px; fill: rgb(153, 0, 102); fill-opacity: 1;"/><path class="point plotly-customdata" transform="translate(41.78,198.9)" d="M3,0A3,3 0 1,1 0,-3A3,3 0 0,1 3,0Z" style="opacity: 1; stroke-width: 0px; fill: rgb(160, 0, 95); fill-opacity: 1;"/><path class="point plotly-customdata" transform="translate(41.78,192.55)" d="M3,0A3,3 0 1,1 0,-3A3,3 0 0,1 3,0Z" style="opacity: 1; stroke-width: 0px; fill: rgb(160, 0, 95); fill-opacity: 1;"/><path class="point plotly-customdata" transform="translate(41.78,186.2)" d="M3,0A3,3 0 1,1 0,-3A3,3 0 0,1 3,0Z" style="opacity: 1; stroke-width: 0px; fill: rgb(162, 0, 93); fill-opacity: 1;"/><path class="point plotly-customdata" transform="translate(41.78,179.85)" d="M3,0A3,3 0 1,1 0,-3A3,3 0 0,1 3,0Z" style="opacity: 1; stroke-width: 0px; fill: rgb(162, 0, 93); fill-opacity: 1;"/><path class="point plotly-customdata" transform="translate(41.78,141.75)" d="M3,0A3,3 0 1,1 0,-3A3,3 0 0,1 3,0Z" style="opacity: 1; stroke-width: 0px; fill: rgb(166, 0, 89); fill-opacity: 1;"/><path class="point plotly-customdata" transform="translate(41.78,78.25)" d="M3,0A3,3 0 1,1 0,-3A3,3 0 0,1 3,0Z" style="opacity: 1; stroke-width: 0px; fill: rgb(162, 0, 93); fill-opacity: 1;"/><path class="point plotly-customdata" transform="translate(41.78,14.75)" d="M3,0A3,3 0 1,1 0,-3A3,3 0 0,1 3,0Z" style="opacity: 1; stroke-width: 0px; fill: rgb(168, 0, 87); fill-opacity: 1;"/><path class="point plotly-customdata" transform="translate(85.47,141.75)" d="M3,0A3,3 0 1,1 0,-3A3,3 0 0,1 3,0Z" style="opacity: 1; stroke-width: 0px; fill: rgb(201, 0, 54); fill-opacity: 1;"/><path class="point plotly-customdata" transform="translate(85.47,78.25)" d="M3,0A3,3 0 1,1 0,-3A3,3 0 0,1 3,0Z" style="opacity: 1; stroke-width: 0px; fill: rgb(201, 0, 54); fill-opacity: 1;"/><path class="point plotly-customdata" transform="translate(85.47,14.75)" d="M3,0A3,3 0 1,1 0,-3A3,3 0 0,1 3,0Z" style="opacity: 1; stroke-width: 0px; fill: rgb(204, 0, 51); fill-opacity: 1;"/><path class="point plotly-customdata" transform="translate(158.28,141.75)" d="M3,0A3,3 0 1,1 0,-3A3,3 0 0,1 3,0Z" style="opacity: 1; stroke-width: 0px; fill: rgb(230, 0, 25); fill-opacity: 1;"/><path class="point plotly-customdata" transform="translate(158.28,78.25)" d="M3,0A3,3 0 1,1 0,-3A3,3 0 0,1 3,0Z" style="opacity: 1; stroke-width: 0px; fill: rgb(230, 0, 25); fill-opacity: 1;"/><path class="point plotly-customdata" transform="translate(231.09,141.75)" d="M3,0A3,3 0 1,1 0,-3A3,3 0 0,1 3,0Z" style="opacity: 1; stroke-width: 0px; fill: rgb(242, 0, 13); fill-opacity: 1;"/></g><g class="text"/></g></g></g><g class="overplot"/><path class="xlines-above crisp" d="M0,0" style="fill: none;"/><path class="ylines-above crisp" d="M0,0" style="fill: none;"/><g class="overlines-above"/><g class="xaxislayer-above"><g class="xtick"><text text-anchor="middle" x="0" y="333" transform="translate(92.66,0)" style="font-family: 'Open Sans', verdana, arial, sans-serif; font-size: 12px; fill: rgb(42, 63, 95); fill-opacity: 1; white-space: pre; opacity: 1;">0</text></g><g class="xtick"><text text-anchor="middle" x="0" y="333" style="font-family: 'Open Sans', verdana, arial, sans-serif; font-size: 12px; fill: rgb(42, 63, 95); fill-opacity: 1; white-space: pre; opacity: 1;" transform="translate(238.28,0)">0.5</text></g><g class="xtick"><text text-anchor="middle" x="0" y="333" style="font-family: 'Open Sans', verdana, arial, sans-serif; font-size: 12px; fill: rgb(42, 63, 95); fill-opacity: 1; white-space: pre; opacity: 1;" transform="translate(383.9,0)">1</text></g></g><g class="yaxislayer-above"><g class="ytick"><text text-anchor="end" x="79" y="4.199999999999999" transform="translate(0,305.25)" style="font-family: 'Open Sans', verdana, arial, sans-serif; font-size: 12px; fill: rgb(42, 63, 95); fill-opacity: 1; white-space: pre; opacity: 1;">0</text></g><g class="ytick"><text text-anchor="end" x="79" y="4.199999999999999" style="font-family: 'Open Sans', verdana, arial, sans-serif; font-size: 12px; fill: rgb(42, 63, 95); fill-opacity: 1; white-space: pre; opacity: 1;" transform="translate(0,254.45)">0.2</text></g><g class="ytick"><text text-anchor="end" x="79" y="4.199999999999999" style="font-family: 'Open Sans', verdana, arial, sans-serif; font-size: 12px; fill: rgb(42, 63, 95); fill-opacity: 1; white-space: pre; opacity: 1;" transform="translate(0,203.65)">0.4</text></g><g class="ytick"><text text-anchor="end" x="79" y="4.199999999999999" style="font-family: 'Open Sans', verdana, arial, sans-serif; font-size: 12px; fill: rgb(42, 63, 95); fill-opacity: 1; white-space: pre; opacity: 1;" transform="translate(0,152.85)">0.6</text></g><g class="ytick"><text text-anchor="end" x="79" y="4.199999999999999" style="font-family: 'Open Sans', verdana, arial, sans-serif; font-size: 12px; fill: rgb(42, 63, 95); fill-opacity: 1; white-space: pre; opacity: 1;" transform="translate(0,102.05)">0.8</text></g></g><g class="overaxes-above"/></g><g class="subplot x2y2"><g class="layer-subplot"><g class="shapelayer"/><g class="imagelayer"/></g><g class="minor-gridlayer"><g class="x2"/><g class="y2"/></g><g class="gridlayer"><g class="x2"><path class="x2grid crisp" transform="translate(582.36,0)" d="M0,100v220" style="stroke: rgb(255, 255, 255); stroke-opacity: 1; stroke-width: 1px;"/><path class="x2grid crisp" transform="translate(727.98,0)" d="M0,100v220" style="stroke: rgb(255, 255, 255); stroke-opacity: 1; stroke-width: 1px;"/></g><g class="y2"><path class="y2grid crisp" transform="translate(0,254.45)" d="M424.08,0h323.84" style="stroke: rgb(255, 255, 255); stroke-opacity: 1; stroke-width: 1px;"/><path class="y2grid crisp" transform="translate(0,203.65)" d="M424.08,0h323.84" style="stroke: rgb(255, 255, 255); stroke-opacity: 1; stroke-width: 1px;"/><path class="y2grid crisp" transform="translate(0,152.85)" d="M424.08,0h323.84" style="stroke: rgb(255, 255, 255); stroke-opacity: 1; stroke-width: 1px;"/><path class="y2grid crisp" transform="translate(0,102.05)" d="M424.08,0h323.84" style="stroke: rgb(255, 255, 255); stroke-opacity: 1; stroke-width: 1px;"/></g></g><g class="zerolinelayer"><path class="x2zl zl crisp" transform="translate(436.74,0)" d="M0,100v220" style="stroke: rgb(255, 255, 255); stroke-opacity: 1; stroke-width: 2px;"/><path class="y2zl zl crisp" transform="translate(0,305.25)" d="M424.08,0h323.84" style="stroke: rgb(255, 255, 255); stroke-opacity: 1; stroke-width: 2px;"/></g><path class="xlines-below"/><path class="ylines-below"/><g class="overlines-below"/><g class="xaxislayer-below"/><g class="yaxislayer-below"/><g class="overaxes-below"/><g class="plot" transform="translate(424.08,100)" clip-path="url(#clipff855ex2y2plot)"><g class="scatterlayer mlayer"><g class="trace scatter trace763673" style="stroke-miterlimit: 2; opacity: 1;"><g class="fills"/><g class="errorbars"/><g class="lines"/><g class="points"><path class="point plotly-customdata" transform="translate(19.94,205.25)" d="M3,0A3,3 0 1,1 0,-3A3,3 0 0,1 3,0Z" style="opacity: 1; stroke-width: 0px; fill: rgb(104, 0, 151); fill-opacity: 1;"/><path class="point plotly-customdata" transform="translate(27.22,205.25)" d="M3,0A3,3 0 1,1 0,-3A3,3 0 0,1 3,0Z" style="opacity: 1; stroke-width: 0px; fill: rgb(139, 0, 116); fill-opacity: 1;"/><path class="point plotly-customdata" transform="translate(34.5,205.25)" d="M3,0A3,3 0 1,1 0,-3A3,3 0 0,1 3,0Z" style="opacity: 1; stroke-width: 0px; fill: rgb(171, 0, 84); fill-opacity: 1;"/><path class="point plotly-customdata" transform="translate(41.78,205.25)" d="M3,0A3,3 0 1,1 0,-3A3,3 0 0,1 3,0Z" style="opacity: 1; stroke-width: 0px; fill: rgb(178, 0, 77); fill-opacity: 1;"/><path class="point plotly-customdata" transform="translate(85.47,205.25)" d="M3,0A3,3 0 1,1 0,-3A3,3 0 0,1 3,0Z" style="opacity: 1; stroke-width: 0px; fill: rgb(159, 0, 96); fill-opacity: 1;"/><path class="point plotly-customdata" transform="translate(158.28,205.25)" d="M3,0A3,3 0 1,1 0,-3A3,3 0 0,1 3,0Z" style="opacity: 1; stroke-width: 0px; fill: rgb(178, 0, 77); fill-opacity: 1;"/><path class="point plotly-customdata" transform="translate(231.09,205.25)" d="M3,0A3,3 0 1,1 0,-3A3,3 0 0,1 3,0Z" style="opacity: 1; stroke-width: 0px; fill: rgb(187, 0, 68); fill-opacity: 1;"/><path class="point plotly-customdata" transform="translate(303.9,205.25)" d="M3,0A3,3 0 1,1 0,-3A3,3 0 0,1 3,0Z" style="opacity: 1; stroke-width: 0px; fill: rgb(189, 0, 66); fill-opacity: 1;"/><path class="point plotly-customdata" transform="translate(19.94,198.9)" d="M3,0A3,3 0 1,1 0,-3A3,3 0 0,1 3,0Z" style="opacity: 1; stroke-width: 0px; fill: rgb(104, 0, 151); fill-opacity: 1;"/><path class="point plotly-customdata" transform="translate(19.94,192.55)" d="M3,0A3,3 0 1,1 0,-3A3,3 0 0,1 3,0Z" style="opacity: 1; stroke-width: 0px; fill: rgb(105, 0, 150); fill-opacity: 1;"/><path class="point plotly-customdata" transform="translate(19.94,186.2)" d="M3,0A3,3 0 1,1 0,-3A3,3 0 0,1 3,0Z" style="opacity: 1; stroke-width: 0px; fill: rgb(101, 0, 154); fill-opacity: 1;"/><path class="point plotly-customdata" transform="translate(19.94,179.85)" d="M3,0A3,3 0 1,1 0,-3A3,3 0 0,1 3,0Z" style="opacity: 1; stroke-width: 0px; fill: rgb(99, 0, 156); fill-opacity: 1;"/><path class="point plotly-customdata" transform="translate(19.94,141.75)" d="M3,0A3,3 0 1,1 0,-3A3,3 0 0,1 3,0Z" style="opacity: 1; stroke-width: 0px; fill: rgb(62, 0, 193); fill-opacity: 1;"/><path class="point plotly-customdata" transform="translate(19.94,78.25)" d="M3,0A3,3 0 1,1 0,-3A3,3 0 0,1 3,0Z" style="opacity: 1; stroke-width: 0px; fill: rgb(18, 0, 237); fill-opacity: 1;"/><path class="point plotly-customdata" transform="translate(19.94,14.75)" d="M3,0A3,3 0 1,1 0,-3A3,3 0 0,1 3,0Z" style="opacity: 1; stroke-width: 0px; fill: rgb(0, 0, 255); fill-opacity: 1;"/><path class="point plotly-customdata" transform="translate(27.22,198.9)" d="M3,0A3,3 0 1,1 0,-3A3,3 0 0,1 3,0Z" style="opacity: 1; stroke-width: 0px; fill: rgb(139, 0, 116); fill-opacity: 1;"/><path class="point plotly-customdata" transform="translate(27.22,192.55)" d="M3,0A3,3 0 1,1 0,-3A3,3 0 0,1 3,0Z" style="opacity: 1; stroke-width: 0px; fill: rgb(148, 0, 107); fill-opacity: 1;"/><path class="point plotly-customdata" transform="translate(27.22,186.2)" d="M3,0A3,3 0 1,1 0,-3A3,3 0 0,1 3,0Z" style="opacity: 1; stroke-width: 0px; fill: rgb(139, 0, 116); fill-opacity: 1;"/><path class="point plotly-customdata" transform="translate(27.22,179.85)" d="M3,0A3,3 0 1,1 0,-3A3,3 0 0,1 3,0Z" style="opacity: 1; stroke-width: 0px; fill: rgb(135, 0, 120); fill-opacity: 1;"/><path class="point plotly-customdata" transform="translate(27.22,141.75)" d="M3,0A3,3 0 1,1 0,-3A3,3 0 0,1 3,0Z" style="opacity: 1; stroke-width: 0px; fill: rgb(133, 0, 122); fill-opacity: 1;"/><path class="point plotly-customdata" transform="translate(27.22,78.25)" d="M3,0A3,3 0 1,1 0,-3A3,3 0 0,1 3,0Z" style="opacity: 1; stroke-width: 0px; fill: rgb(100, 0, 155); fill-opacity: 1;"/><path class="point plotly-customdata" transform="translate(27.22,14.75)" d="M3,0A3,3 0 1,1 0,-3A3,3 0 0,1 3,0Z" style="opacity: 1; stroke-width: 0px; fill: rgb(41, 0, 214); fill-opacity: 1;"/><path class="point plotly-customdata" transform="translate(34.5,198.9)" d="M3,0A3,3 0 1,1 0,-3A3,3 0 0,1 3,0Z" style="opacity: 1; stroke-width: 0px; fill: rgb(167, 0, 88); fill-opacity: 1;"/><path class="point plotly-customdata" transform="translate(34.5,192.55)" d="M3,0A3,3 0 1,1 0,-3A3,3 0 0,1 3,0Z" style="opacity: 1; stroke-width: 0px; fill: rgb(168, 0, 87); fill-opacity: 1;"/><path class="point plotly-customdata" transform="translate(34.5,186.2)" d="M3,0A3,3 0 1,1 0,-3A3,3 0 0,1 3,0Z" style="opacity: 1; stroke-width: 0px; fill: rgb(163, 0, 92); fill-opacity: 1;"/><path class="point plotly-customdata" transform="translate(34.5,179.85)" d="M3,0A3,3 0 1,1 0,-3A3,3 0 0,1 3,0Z" style="opacity: 1; stroke-width: 0px; fill: rgb(167, 0, 88); fill-opacity: 1;"/><path class="point plotly-customdata" transform="translate(34.5,141.75)" d="M3,0A3,3 0 1,1 0,-3A3,3 0 0,1 3,0Z" style="opacity: 1; stroke-width: 0px; fill: rgb(161, 0, 94); fill-opacity: 1;"/><path class="point plotly-customdata" transform="translate(34.5,78.25)" d="M3,0A3,3 0 1,1 0,-3A3,3 0 0,1 3,0Z" style="opacity: 1; stroke-width: 0px; fill: rgb(149, 0, 106); fill-opacity: 1;"/><path class="point plotly-customdata" transform="translate(34.5,14.75)" d="M3,0A3,3 0 1,1 0,-3A3,3 0 0,1 3,0Z" style="opacity: 1; stroke-width: 0px; fill: rgb(117, 0, 138); fill-opacity: 1;"/><path class="point plotly-customdata" transform="translate(41.78,198.9)" d="M3,0A3,3 0 1,1 0,-3A3,3 0 0,1 3,0Z" style="opacity: 1; stroke-width: 0px; fill: rgb(163, 0, 92); fill-opacity: 1;"/><path class="point plotly-customdata" transform="translate(41.78,192.55)" d="M3,0A3,3 0 1,1 0,-3A3,3 0 0,1 3,0Z" style="opacity: 1; stroke-width: 0px; fill: rgb(168, 0, 87); fill-opacity: 1;"/><path class="point plotly-customdata" transform="translate(41.78,186.2)" d="M3,0A3,3 0 1,1 0,-3A3,3 0 0,1 3,0Z" style="opacity: 1; stroke-width: 0px; fill: rgb(176, 0, 79); fill-opacity: 1;"/><path class="point plotly-customdata" transform="translate(41.78,179.85)" d="M3,0A3,3 0 1,1 0,-3A3,3 0 0,1 3,0Z" style="opacity: 1; stroke-width: 0px; fill: rgb(176, 0, 79); fill-opacity: 1;"/><path class="point plotly-customdata" transform="translate(41.78,141.75)" d="M3,0A3,3 0 1,1 0,-3A3,3 0 0,1 3,0Z" style="opacity: 1; stroke-width: 0px; fill: rgb(171, 0, 84); fill-opacity: 1;"/><path class="point plotly-customdata" transform="translate(41.78,78.25)" d="M3,0A3,3 0 1,1 0,-3A3,3 0 0,1 3,0Z" style="opacity: 1; stroke-width: 0px; fill: rgb(161, 0, 94); fill-opacity: 1;"/><path class="point plotly-customdata" transform="translate(41.78,14.75)" d="M3,0A3,3 0 1,1 0,-3A3,3 0 0,1 3,0Z" style="opacity: 1; stroke-width: 0px; fill: rgb(133, 0, 122); fill-opacity: 1;"/><path class="point plotly-customdata" transform="translate(85.47,141.75)" d="M3,0A3,3 0 1,1 0,-3A3,3 0 0,1 3,0Z" style="opacity: 1; stroke-width: 0px; fill: rgb(175, 0, 80); fill-opacity: 1;"/><path class="point plotly-customdata" transform="translate(85.47,78.25)" d="M3,0A3,3 0 1,1 0,-3A3,3 0 0,1 3,0Z" style="opacity: 1; stroke-width: 0px; fill: rgb(169, 0, 86); fill-opacity: 1;"/><path class="point plotly-customdata" transform="translate(85.47,14.75)" d="M3,0A3,3 0 1,1 0,-3A3,3 0 0,1 3,0Z" style="opacity: 1; stroke-width: 0px; fill: rgb(152, 0, 103); fill-opacity: 1;"/><path class="point plotly-customdata" transform="translate(158.28,141.75)" d="M3,0A3,3 0 1,1 0,-3A3,3 0 0,1 3,0Z" style="opacity: 1; stroke-width: 0px; fill: rgb(164, 0, 91); fill-opacity: 1;"/><path class="point plotly-customdata" transform="translate(158.28,78.25)" d="M3,0A3,3 0 1,1 0,-3A3,3 0 0,1 3,0Z" style="opacity: 1; stroke-width: 0px; fill: rgb(159, 0, 96); fill-opacity: 1;"/><path class="point plotly-customdata" transform="translate(231.09,141.75)" d="M3,0A3,3 0 1,1 0,-3A3,3 0 0,1 3,0Z" style="opacity: 1; stroke-width: 0px; fill: rgb(188, 0, 67); fill-opacity: 1;"/></g><g class="text"/></g></g></g><g class="overplot"/><path class="xlines-above crisp" d="M0,0" style="fill: none;"/><path class="ylines-above crisp" d="M0,0" style="fill: none;"/><g class="overlines-above"/><g class="xaxislayer-above"><g class="x2tick"><text text-anchor="middle" x="0" y="333" transform="translate(436.74,0)" style="font-family: 'Open Sans', verdana, arial, sans-serif; font-size: 12px; fill: rgb(42, 63, 95); fill-opacity: 1; white-space: pre; opacity: 1;">0</text></g><g class="x2tick"><text text-anchor="middle" x="0" y="333" style="font-family: 'Open Sans', verdana, arial, sans-serif; font-size: 12px; fill: rgb(42, 63, 95); fill-opacity: 1; white-space: pre; opacity: 1;" transform="translate(582.36,0)">0.5</text></g><g class="x2tick"><text text-anchor="middle" x="0" y="333" style="font-family: 'Open Sans', verdana, arial, sans-serif; font-size: 12px; fill: rgb(42, 63, 95); fill-opacity: 1; white-space: pre; opacity: 1;" transform="translate(727.98,0)">1</text></g></g><g class="yaxislayer-above"/><g class="overaxes-above"/></g><g class="subplot x3y3"><g class="layer-subplot"><g class="shapelayer"/><g class="imagelayer"/></g><g class="minor-gridlayer"><g class="x3"/><g class="y3"/></g><g class="gridlayer"><g class="x3"><path class="x3grid crisp" transform="translate(926.4399999999999,0)" d="M0,100v220" style="stroke: rgb(255, 255, 255); stroke-opacity: 1; stroke-width: 1px;"/><path class="x3grid crisp" transform="translate(1072.06,0)" d="M0,100v220" style="stroke: rgb(255, 255, 255); stroke-opacity: 1; stroke-width: 1px;"/></g><g class="y3"><path class="y3grid crisp" transform="translate(0,254.45)" d="M768.16,0h323.84" style="stroke: rgb(255, 255, 255); stroke-opacity: 1; stroke-width: 1px;"/><path class="y3grid crisp" transform="translate(0,203.65)" d="M768.16,0h323.84" style="stroke: rgb(255, 255, 255); stroke-opacity: 1; stroke-width: 1px;"/><path class="y3grid crisp" transform="translate(0,152.85)" d="M768.16,0h323.84" style="stroke: rgb(255, 255, 255); stroke-opacity: 1; stroke-width: 1px;"/><path class="y3grid crisp" transform="translate(0,102.05)" d="M768.16,0h323.84" style="stroke: rgb(255, 255, 255); stroke-opacity: 1; stroke-width: 1px;"/></g></g><g class="zerolinelayer"><path class="x3zl zl crisp" transform="translate(780.8199999999999,0)" d="M0,100v220" style="stroke: rgb(255, 255, 255); stroke-opacity: 1; stroke-width: 2px;"/><path class="y3zl zl crisp" transform="translate(0,305.25)" d="M768.16,0h323.84" style="stroke: rgb(255, 255, 255); stroke-opacity: 1; stroke-width: 2px;"/></g><path class="xlines-below"/><path class="ylines-below"/><g class="overlines-below"/><g class="xaxislayer-below"/><g class="yaxislayer-below"/><g class="overaxes-below"/><g class="plot" transform="translate(768.16,100)" clip-path="url(#clipff855ex3y3plot)"><g class="scatterlayer mlayer"><g class="trace scatter trace0ca048" style="stroke-miterlimit: 2; opacity: 1;"><g class="fills"/><g class="errorbars"/><g class="lines"/><g class="points"><path class="point plotly-customdata" transform="translate(19.94,205.25)" d="M3,0A3,3 0 1,1 0,-3A3,3 0 0,1 3,0Z" style="opacity: 1; stroke-width: 0px; fill: rgb(121, 0, 134); fill-opacity: 1;"/><path class="point plotly-customdata" transform="translate(27.22,205.25)" d="M3,0A3,3 0 1,1 0,-3A3,3 0 0,1 3,0Z" style="opacity: 1; stroke-width: 0px; fill: rgb(150, 0, 105); fill-opacity: 1;"/><path class="point plotly-customdata" transform="translate(34.5,205.25)" d="M3,0A3,3 0 1,1 0,-3A3,3 0 0,1 3,0Z" style="opacity: 1; stroke-width: 0px; fill: rgb(167, 0, 88); fill-opacity: 1;"/><path class="point plotly-customdata" transform="translate(41.78,205.25)" d="M3,0A3,3 0 1,1 0,-3A3,3 0 0,1 3,0Z" style="opacity: 1; stroke-width: 0px; fill: rgb(176, 0, 79); fill-opacity: 1;"/><path class="point plotly-customdata" transform="translate(85.47,205.25)" d="M3,0A3,3 0 1,1 0,-3A3,3 0 0,1 3,0Z" style="opacity: 1; stroke-width: 0px; fill: rgb(212, 0, 43); fill-opacity: 1;"/><path class="point plotly-customdata" transform="translate(158.28,205.25)" d="M3,0A3,3 0 1,1 0,-3A3,3 0 0,1 3,0Z" style="opacity: 1; stroke-width: 0px; fill: rgb(236, 0, 19); fill-opacity: 1;"/><path class="point plotly-customdata" transform="translate(231.09,205.25)" d="M3,0A3,3 0 1,1 0,-3A3,3 0 0,1 3,0Z" style="opacity: 1; stroke-width: 0px; fill: rgb(245, 0, 10); fill-opacity: 1;"/><path class="point plotly-customdata" transform="translate(303.9,205.25)" d="M3,0A3,3 0 1,1 0,-3A3,3 0 0,1 3,0Z" style="opacity: 1; stroke-width: 0px; fill: rgb(255, 0, 0); fill-opacity: 1;"/><path class="point plotly-customdata" transform="translate(19.94,198.9)" d="M3,0A3,3 0 1,1 0,-3A3,3 0 0,1 3,0Z" style="opacity: 1; stroke-width: 0px; fill: rgb(97, 0, 158); fill-opacity: 1;"/><path class="point plotly-customdata" transform="translate(19.94,192.55)" d="M3,0A3,3 0 1,1 0,-3A3,3 0 0,1 3,0Z" style="opacity: 1; stroke-width: 0px; fill: rgb(82, 0, 173); fill-opacity: 1;"/><path class="point plotly-customdata" transform="translate(19.94,186.2)" d="M3,0A3,3 0 1,1 0,-3A3,3 0 0,1 3,0Z" style="opacity: 1; stroke-width: 0px; fill: rgb(83, 0, 172); fill-opacity: 1;"/><path class="point plotly-customdata" transform="translate(19.94,179.85)" d="M3,0A3,3 0 1,1 0,-3A3,3 0 0,1 3,0Z" style="opacity: 1; stroke-width: 0px; fill: rgb(71, 0, 184); fill-opacity: 1;"/><path class="point plotly-customdata" transform="translate(19.94,141.75)" d="M3,0A3,3 0 1,1 0,-3A3,3 0 0,1 3,0Z" style="opacity: 1; stroke-width: 0px; fill: rgb(78, 0, 177); fill-opacity: 1;"/><path class="point plotly-customdata" transform="translate(19.94,78.25)" d="M3,0A3,3 0 1,1 0,-3A3,3 0 0,1 3,0Z" style="opacity: 1; stroke-width: 0px; fill: rgb(78, 0, 177); fill-opacity: 1;"/><path class="point plotly-customdata" transform="translate(19.94,14.75)" d="M3,0A3,3 0 1,1 0,-3A3,3 0 0,1 3,0Z" style="opacity: 1; stroke-width: 0px; fill: rgb(76, 0, 179); fill-opacity: 1;"/><path class="point plotly-customdata" transform="translate(27.22,198.9)" d="M3,0A3,3 0 1,1 0,-3A3,3 0 0,1 3,0Z" style="opacity: 1; stroke-width: 0px; fill: rgb(143, 0, 112); fill-opacity: 1;"/><path class="point plotly-customdata" transform="translate(27.22,192.55)" d="M3,0A3,3 0 1,1 0,-3A3,3 0 0,1 3,0Z" style="opacity: 1; stroke-width: 0px; fill: rgb(137, 0, 118); fill-opacity: 1;"/><path class="point plotly-customdata" transform="translate(27.22,186.2)" d="M3,0A3,3 0 1,1 0,-3A3,3 0 0,1 3,0Z" style="opacity: 1; stroke-width: 0px; fill: rgb(135, 0, 120); fill-opacity: 1;"/><path class="point plotly-customdata" transform="translate(27.22,179.85)" d="M3,0A3,3 0 1,1 0,-3A3,3 0 0,1 3,0Z" style="opacity: 1; stroke-width: 0px; fill: rgb(133, 0, 122); fill-opacity: 1;"/><path class="point plotly-customdata" transform="translate(27.22,141.75)" d="M3,0A3,3 0 1,1 0,-3A3,3 0 0,1 3,0Z" style="opacity: 1; stroke-width: 0px; fill: rgb(121, 0, 134); fill-opacity: 1;"/><path class="point plotly-customdata" transform="translate(27.22,78.25)" d="M3,0A3,3 0 1,1 0,-3A3,3 0 0,1 3,0Z" style="opacity: 1; stroke-width: 0px; fill: rgb(122, 0, 133); fill-opacity: 1;"/><path class="point plotly-customdata" transform="translate(27.22,14.75)" d="M3,0A3,3 0 1,1 0,-3A3,3 0 0,1 3,0Z" style="opacity: 1; stroke-width: 0px; fill: rgb(117, 0, 138); fill-opacity: 1;"/><path class="point plotly-customdata" transform="translate(34.5,198.9)" d="M3,0A3,3 0 1,1 0,-3A3,3 0 0,1 3,0Z" style="opacity: 1; stroke-width: 0px; fill: rgb(164, 0, 91); fill-opacity: 1;"/><path class="point plotly-customdata" transform="translate(34.5,192.55)" d="M3,0A3,3 0 1,1 0,-3A3,3 0 0,1 3,0Z" style="opacity: 1; stroke-width: 0px; fill: rgb(163, 0, 92); fill-opacity: 1;"/><path class="point plotly-customdata" transform="translate(34.5,186.2)" d="M3,0A3,3 0 1,1 0,-3A3,3 0 0,1 3,0Z" style="opacity: 1; stroke-width: 0px; fill: rgb(151, 0, 104); fill-opacity: 1;"/><path class="point plotly-customdata" transform="translate(34.5,179.85)" d="M3,0A3,3 0 1,1 0,-3A3,3 0 0,1 3,0Z" style="opacity: 1; stroke-width: 0px; fill: rgb(153, 0, 102); fill-opacity: 1;"/><path class="point plotly-customdata" transform="translate(34.5,141.75)" d="M3,0A3,3 0 1,1 0,-3A3,3 0 0,1 3,0Z" style="opacity: 1; stroke-width: 0px; fill: rgb(141, 0, 114); fill-opacity: 1;"/><path class="point plotly-customdata" transform="translate(34.5,78.25)" d="M3,0A3,3 0 1,1 0,-3A3,3 0 0,1 3,0Z" style="opacity: 1; stroke-width: 0px; fill: rgb(141, 0, 114); fill-opacity: 1;"/><path class="point plotly-customdata" transform="translate(34.5,14.75)" d="M3,0A3,3 0 1,1 0,-3A3,3 0 0,1 3,0Z" style="opacity: 1; stroke-width: 0px; fill: rgb(138, 0, 117); fill-opacity: 1;"/><path class="point plotly-customdata" transform="translate(41.78,198.9)" d="M3,0A3,3 0 1,1 0,-3A3,3 0 0,1 3,0Z" style="opacity: 1; stroke-width: 0px; fill: rgb(181, 0, 74); fill-opacity: 1;"/><path class="point plotly-customdata" transform="translate(41.78,192.55)" d="M3,0A3,3 0 1,1 0,-3A3,3 0 0,1 3,0Z" style="opacity: 1; stroke-width: 0px; fill: rgb(177, 0, 78); fill-opacity: 1;"/><path class="point plotly-customdata" transform="translate(41.78,186.2)" d="M3,0A3,3 0 1,1 0,-3A3,3 0 0,1 3,0Z" style="opacity: 1; stroke-width: 0px; fill: rgb(170, 0, 85); fill-opacity: 1;"/><path class="point plotly-customdata" transform="translate(41.78,179.85)" d="M3,0A3,3 0 1,1 0,-3A3,3 0 0,1 3,0Z" style="opacity: 1; stroke-width: 0px; fill: rgb(166, 0, 89); fill-opacity: 1;"/><path class="point plotly-customdata" transform="translate(41.78,141.75)" d="M3,0A3,3 0 1,1 0,-3A3,3 0 0,1 3,0Z" style="opacity: 1; stroke-width: 0px; fill: rgb(151, 0, 104); fill-opacity: 1;"/><path class="point plotly-customdata" transform="translate(41.78,78.25)" d="M3,0A3,3 0 1,1 0,-3A3,3 0 0,1 3,0Z" style="opacity: 1; stroke-width: 0px; fill: rgb(148, 0, 107); fill-opacity: 1;"/><path class="point plotly-customdata" transform="translate(41.78,14.75)" d="M3,0A3,3 0 1,1 0,-3A3,3 0 0,1 3,0Z" style="opacity: 1; stroke-width: 0px; fill: rgb(145, 0, 110); fill-opacity: 1;"/><path class="point plotly-customdata" transform="translate(85.47,141.75)" d="M3,0A3,3 0 1,1 0,-3A3,3 0 0,1 3,0Z" style="opacity: 1; stroke-width: 0px; fill: rgb(207, 0, 48); fill-opacity: 1;"/><path class="point plotly-customdata" transform="translate(85.47,78.25)" d="M3,0A3,3 0 1,1 0,-3A3,3 0 0,1 3,0Z" style="opacity: 1; stroke-width: 0px; fill: rgb(202, 0, 53); fill-opacity: 1;"/><path class="point plotly-customdata" transform="translate(85.47,14.75)" d="M3,0A3,3 0 1,1 0,-3A3,3 0 0,1 3,0Z" style="opacity: 1; stroke-width: 0px; fill: rgb(194, 0, 61); fill-opacity: 1;"/><path class="point plotly-customdata" transform="translate(158.28,141.75)" d="M3,0A3,3 0 1,1 0,-3A3,3 0 0,1 3,0Z" style="opacity: 1; stroke-width: 0px; fill: rgb(232, 0, 23); fill-opacity: 1;"/><path class="point plotly-customdata" transform="translate(158.28,78.25)" d="M3,0A3,3 0 1,1 0,-3A3,3 0 0,1 3,0Z" style="opacity: 1; stroke-width: 0px; fill: rgb(230, 0, 25); fill-opacity: 1;"/><path class="point plotly-customdata" transform="translate(231.09,141.75)" d="M3,0A3,3 0 1,1 0,-3A3,3 0 0,1 3,0Z" style="opacity: 1; stroke-width: 0px; fill: rgb(246, 0, 9); fill-opacity: 1;"/></g><g class="text"/></g></g></g><g class="overplot"/><path class="xlines-above crisp" d="M0,0" style="fill: none;"/><path class="ylines-above crisp" d="M0,0" style="fill: none;"/><g class="overlines-above"/><g class="xaxislayer-above"><g class="x3tick"><text text-anchor="middle" x="0" y="333" transform="translate(780.8199999999999,0)" style="font-family: 'Open Sans', verdana, arial, sans-serif; font-size: 12px; fill: rgb(42, 63, 95); fill-opacity: 1; white-space: pre; opacity: 1;">0</text></g><g class="x3tick"><text text-anchor="middle" x="0" y="333" style="font-family: 'Open Sans', verdana, arial, sans-serif; font-size: 12px; fill: rgb(42, 63, 95); fill-opacity: 1; white-space: pre; opacity: 1;" transform="translate(926.4399999999999,0)">0.5</text></g><g class="x3tick"><text text-anchor="middle" x="0" y="333" style="font-family: 'Open Sans', verdana, arial, sans-serif; font-size: 12px; fill: rgb(42, 63, 95); fill-opacity: 1; white-space: pre; opacity: 1;" transform="translate(1072.06,0)">1</text></g></g><g class="yaxislayer-above"/><g class="overaxes-above"/></g></g><g class="polarlayer"/><g class="smithlayer"/><g class="ternarylayer"/><g class="geolayer"/><g class="funnelarealayer"/><g class="pielayer"/><g class="iciclelayer"/><g class="treemaplayer"/><g class="sunburstlayer"/><g class="glimages"/><defs id="topdefs-ff855e"><g class="clips"/></defs><g class="layer-above"><g class="imagelayer"/><g class="shapelayer"/></g><g class="infolayer"><g class="cbcoloraxis colorbar" transform="translate(80,100)"><rect class="cbbg" x="1032" y="0" width="75.5625" height="220" style="fill: rgb(0, 0, 0); fill-opacity: 0; stroke: rgb(68, 68, 68); stroke-opacity: 1; stroke-width: 0;"/><g class="cbfills" transform="translate(0,31)"><rect class="cbfill gradient_filled" x="1042" y="0" width="30" height="179" style="fill: url('#gff855e-cbcoloraxis');"/></g><g class="cblines" transform="translate(0,31)"/><g class="cbaxis crisp" transform="translate(0,-100)"><g class="ycbcoloraxistick"><text text-anchor="start" x="1074.9" y="4.199999999999999" transform="translate(0,274.77)" style="font-family: 'Open Sans', verdana, arial, sans-serif; font-size: 12px; fill: rgb(42, 63, 95); fill-opacity: 1; white-space: pre; opacity: 1;">0.4</text></g><g class="ycbcoloraxistick"><text text-anchor="start" x="1074.9" y="4.199999999999999" style="font-family: 'Open Sans', verdana, arial, sans-serif; font-size: 12px; fill: rgb(42, 63, 95); fill-opacity: 1; white-space: pre; opacity: 1;" transform="translate(0,235.98000000000002)">0.5</text></g><g class="ycbcoloraxistick"><text text-anchor="start" x="1074.9" y="4.199999999999999" style="font-family: 'Open Sans', verdana, arial, sans-serif; font-size: 12px; fill: rgb(42, 63, 95); fill-opacity: 1; white-space: pre; opacity: 1;" transform="translate(0,197.18)">0.6</text></g><g class="ycbcoloraxistick"><text text-anchor="start" x="1074.9" y="4.199999999999999" style="font-family: 'Open Sans', verdana, arial, sans-serif; font-size: 12px; fill: rgb(42, 63, 95); fill-opacity: 1; white-space: pre; opacity: 1;" transform="translate(0,158.39)">0.7</text></g></g><g class="cbtitleunshift" transform="translate(-80,-100)"><g class="cbtitle" transform=""><text class="ycbcoloraxistitle" x="1122.24" y="123.5" text-anchor="start" style="font-family: 'Open Sans', verdana, arial, sans-serif; font-size: 14px; fill: rgb(42, 63, 95); opacity: 1; font-weight: normal; white-space: pre;">test.acc</text></g></g><rect class="cboutline" x="1042" y="31" width="30" height="179" style="stroke: rgb(68, 68, 68); stroke-opacity: 1; fill: none; stroke-width: 0;"/></g><g class="g-gtitle"><text class="gtitle" x="60" y="50" text-anchor="start" dy="0em" style="font-family: 'Open Sans', verdana, arial, sans-serif; font-size: 17px; fill: rgb(42, 63, 95); opacity: 1; font-weight: normal; white-space: pre;">covertype</text></g><g class="g-xtitle"><text class="xtitle" x="241.92" y="360.3" text-anchor="middle" style="font-family: 'Open Sans', verdana, arial, sans-serif; font-size: 14px; fill: rgb(42, 63, 95); opacity: 1; font-weight: normal; white-space: pre;">l_split</text></g><g class="g-x2title"><text class="x2title" x="586" y="360.3" text-anchor="middle" style="font-family: 'Open Sans', verdana, arial, sans-serif; font-size: 14px; fill: rgb(42, 63, 95); opacity: 1; font-weight: normal; white-space: pre;">l_split</text></g><g class="g-x3title"><text class="x3title" x="930.0799999999999" y="360.3" text-anchor="middle" style="font-family: 'Open Sans', verdana, arial, sans-serif; font-size: 14px; fill: rgb(42, 63, 95); opacity: 1; font-weight: normal; white-space: pre;">l_split</text></g><g class="g-ytitle"><text class="ytitle" transform="rotate(-90,35.60625,210)" x="35.60625" y="210" text-anchor="middle" style="font-family: 'Open Sans', verdana, arial, sans-serif; font-size: 14px; fill: rgb(42, 63, 95); opacity: 1; font-weight: normal; white-space: pre;">ul_split</text></g><g class="g-y2title"/><g class="g-y3title"/><g class="annotation" data-index="0" style="opacity: 1;"><g class="annotation-text-g" transform="rotate(0,241.92,91)"><g class="cursor-pointer" transform="translate(226,82)"><rect class="bg" x="0.5" y="0.5" width="31" height="17" style="stroke-width: 1px; stroke: rgb(0, 0, 0); stroke-opacity: 0; fill: rgb(0, 0, 0); fill-opacity: 0;"/><text class="annotation-text" text-anchor="middle" x="15.78125" y="13" style="font-family: 'Open Sans', verdana, arial, sans-serif; font-size: 12px; fill: rgb(42, 63, 95); fill-opacity: 1; white-space: pre;">hgbt</text></g></g></g><g class="annotation" data-index="1" style="opacity: 1;"><g class="annotation-text-g" transform="rotate(0,586,91)"><g class="cursor-pointer" transform="translate(573,82)"><rect class="bg" x="0.5" y="0.5" width="26" height="17" style="stroke-width: 1px; stroke: rgb(0, 0, 0); stroke-opacity: 0; fill: rgb(0, 0, 0); fill-opacity: 0;"/><text class="annotation-text" text-anchor="middle" x="13.328125" y="13" style="font-family: 'Open Sans', verdana, arial, sans-serif; font-size: 12px; fill: rgb(42, 63, 95); fill-opacity: 1; white-space: pre;">mlp</text></g></g></g><g class="annotation" data-index="2" style="opacity: 1;"><g class="annotation-text-g" transform="rotate(0,930.0799999999998,91)"><g class="cursor-pointer" transform="translate(885,82)"><rect class="bg" x="0.5" y="0.5" width="89" height="17" style="stroke-width: 1px; stroke: rgb(0, 0, 0); stroke-opacity: 0; fill: rgb(0, 0, 0); fill-opacity: 0;"/><text class="annotation-text" text-anchor="middle" x="44.734375" y="13" style="font-family: 'Open Sans', verdana, arial, sans-serif; font-size: 12px; fill: rgb(42, 63, 95); fill-opacity: 1; white-space: pre;">random-forest</text></g></g></g></g></svg>
