<svg class="main-svg" xmlns="http://www.w3.org/2000/svg" xmlns:xlink="http://www.w3.org/1999/xlink" width="1200" height="400" style="" viewBox="0 0 1200 400"><rect x="0" y="0" width="1200" height="400" style="fill: rgb(255, 255, 255); fill-opacity: 1;"/><defs id="defs-48217b"><g class="clips"><clipPath id="clip48217bxyplot" class="plotclip"><rect width="314.23999999999995" height="220"/></clipPath><clipPath id="clip48217bx2y2plot" class="plotclip"><rect width="314.23999999999995" height="220"/></clipPath><clipPath id="clip48217bx3y3plot" class="plotclip"><rect width="314.23999999999995" height="220"/></clipPath><clipPath class="axesclip" id="clip48217bx"><rect x="80" y="0" width="314.23999999999995" height="400"/></clipPath><clipPath class="axesclip" id="clip48217by"><rect x="0" y="100" width="1200" height="220"/></clipPath><clipPath class="axesclip" id="clip48217bxy"><rect x="80" y="100" width="314.23999999999995" height="220"/></clipPath><clipPath class="axesclip" id="clip48217by2"><rect x="0" y="100" width="1200" height="220"/></clipPath><clipPath class="axesclip" id="clip48217bxy2"><rect x="80" y="100" width="314.23999999999995" height="220"/></clipPath><clipPath class="axesclip" id="clip48217by3"><rect x="0" y="100" width="1200" height="220"/></clipPath><clipPath class="axesclip" id="clip48217bxy3"><rect x="80" y="100" width="314.23999999999995" height="220"/></clipPath><clipPath class="axesclip" id="clip48217bx2"><rect x="413.88" y="0" width="314.23999999999995" height="400"/></clipPath><clipPath class="axesclip" id="clip48217bx2y"><rect x="413.88" y="100" width="314.23999999999995" height="220"/></clipPath><clipPath class="axesclip" id="clip48217bx2y2"><rect x="413.88" y="100" width="314.23999999999995" height="220"/></clipPath><clipPath class="axesclip" id="clip48217bx2y3"><rect x="413.88" y="100" width="314.23999999999995" height="220"/></clipPath><clipPath class="axesclip" id="clip48217bx3"><rect x="747.76" y="0" width="314.23999999999995" height="400"/></clipPath><clipPath class="axesclip" id="clip48217bx3y"><rect x="747.76" y="100" width="314.23999999999995" height="220"/></clipPath><clipPath class="axesclip" id="clip48217bx3y2"><rect x="747.76" y="100" width="314.23999999999995" height="220"/></clipPath><clipPath class="axesclip" id="clip48217bx3y3"><rect x="747.76" y="100" width="314.23999999999995" height="220"/></clipPath></g><g class="gradients"><linearGradient x1="0" x2="0" y1="1" y2="0" id="g48217b-cbcoloraxis"><stop offset="0%" stop-color="rgb(0, 0, 255)" stop-opacity="1"/><stop offset="100%" stop-color="rgb(255, 0, 0)" stop-opacity="1"/></linearGradient></g><g class="patterns"/></defs><g class="bglayer"><rect class="bg" x="80" y="100" width="314.23999999999995" height="220" style="fill: rgb(229, 236, 246); fill-opacity: 1; stroke-width: 0;"/><rect class="bg" x="413.88" y="100" width="314.23999999999995" height="220" style="fill: rgb(229, 236, 246); fill-opacity: 1; stroke-width: 0;"/><rect class="bg" x="747.76" y="100" width="314.23999999999995" height="220" style="fill: rgb(229, 236, 246); fill-opacity: 1; stroke-width: 0;"/></g><g class="layer-below"><g class="imagelayer"/><g class="shapelayer"/></g><g class="cartesianlayer"><g class="subplot xy"><g class="layer-subplot"><g class="shapelayer"/><g class="imagelayer"/></g><g class="minor-gridlayer"><g class="x"/><g class="y"/></g><g class="gridlayer"><g class="x"><path class="xgrid crisp" transform="translate(233.59,0)" d="M0,100v220" style="stroke: rgb(255, 255, 255); stroke-opacity: 1; stroke-width: 1px;"/><path class="xgrid crisp" transform="translate(374.78,0)" d="M0,100v220" style="stroke: rgb(255, 255, 255); stroke-opacity: 1; stroke-width: 1px;"/></g><g class="y"><path class="ygrid crisp" transform="translate(0,254.45)" d="M80,0h314.23999999999995" style="stroke: rgb(255, 255, 255); stroke-opacity: 1; stroke-width: 1px;"/><path class="ygrid crisp" transform="translate(0,203.65)" d="M80,0h314.23999999999995" style="stroke: rgb(255, 255, 255); stroke-opacity: 1; stroke-width: 1px;"/><path class="ygrid crisp" transform="translate(0,152.85)" d="M80,0h314.23999999999995" style="stroke: rgb(255, 255, 255); stroke-opacity: 1; stroke-width: 1px;"/><path class="ygrid crisp" transform="translate(0,102.05)" d="M80,0h314.23999999999995" style="stroke: rgb(255, 255, 255); stroke-opacity: 1; stroke-width: 1px;"/></g></g><g class="zerolinelayer"><path class="xzl zl crisp" transform="translate(92.4,0)" d="M0,100v220" style="stroke: rgb(255, 255, 255); stroke-opacity: 1; stroke-width: 2px;"/><path class="yzl zl crisp" transform="translate(0,305.25)" d="M80,0h314.23999999999995" style="stroke: rgb(255, 255, 255); stroke-opacity: 1; stroke-width: 2px;"/></g><path class="xlines-below"/><path class="ylines-below"/><g class="overlines-below"/><g class="xaxislayer-below"/><g class="yaxislayer-below"/><g class="overaxes-below"/><g class="plot" transform="translate(80,100)" clip-path="url(#clip48217bxyplot)"><g class="scatterlayer mlayer"><g class="trace scatter tracebfb0fa" style="stroke-miterlimit: 2; opacity: 1;"><g class="fills"/><g class="errorbars"/><g class="lines"/><g class="points"><path class="point plotly-customdata" transform="translate(19.46,205.25)" d="M3,0A3,3 0 1,1 0,-3A3,3 0 0,1 3,0Z" style="opacity: 1; stroke-width: 0px; fill: rgb(62, 0, 193); fill-opacity: 1;"/><path class="point plotly-customdata" transform="translate(26.52,205.25)" d="M3,0A3,3 0 1,1 0,-3A3,3 0 0,1 3,0Z" style="opacity: 1; stroke-width: 0px; fill: rgb(90, 0, 165); fill-opacity: 1;"/><path class="point plotly-customdata" transform="translate(33.58,205.25)" d="M3,0A3,3 0 1,1 0,-3A3,3 0 0,1 3,0Z" style="opacity: 1; stroke-width: 0px; fill: rgb(117, 0, 138); fill-opacity: 1;"/><path class="point plotly-customdata" transform="translate(40.64,205.25)" d="M3,0A3,3 0 1,1 0,-3A3,3 0 0,1 3,0Z" style="opacity: 1; stroke-width: 0px; fill: rgb(140, 0, 115); fill-opacity: 1;"/><path class="point plotly-customdata" transform="translate(83,205.25)" d="M3,0A3,3 0 1,1 0,-3A3,3 0 0,1 3,0Z" style="opacity: 1; stroke-width: 0px; fill: rgb(214, 0, 41); fill-opacity: 1;"/><path class="point plotly-customdata" transform="translate(153.59,205.25)" d="M3,0A3,3 0 1,1 0,-3A3,3 0 0,1 3,0Z" style="opacity: 1; stroke-width: 0px; fill: rgb(217, 0, 38); fill-opacity: 1;"/><path class="point plotly-customdata" transform="translate(224.18,205.25)" d="M3,0A3,3 0 1,1 0,-3A3,3 0 0,1 3,0Z" style="opacity: 1; stroke-width: 0px; fill: rgb(234, 0, 21); fill-opacity: 1;"/><path class="point plotly-customdata" transform="translate(294.78,205.25)" d="M3,0A3,3 0 1,1 0,-3A3,3 0 0,1 3,0Z" style="opacity: 1; stroke-width: 0px; fill: rgb(248, 0, 7); fill-opacity: 1;"/><path class="point plotly-customdata" transform="translate(19.46,198.9)" d="M3,0A3,3 0 1,1 0,-3A3,3 0 0,1 3,0Z" style="opacity: 1; stroke-width: 0px; fill: rgb(46, 0, 209); fill-opacity: 1;"/><path class="point plotly-customdata" transform="translate(19.46,192.55)" d="M3,0A3,3 0 1,1 0,-3A3,3 0 0,1 3,0Z" style="opacity: 1; stroke-width: 0px; fill: rgb(35, 0, 220); fill-opacity: 1;"/><path class="point plotly-customdata" transform="translate(19.46,186.2)" d="M3,0A3,3 0 1,1 0,-3A3,3 0 0,1 3,0Z" style="opacity: 1; stroke-width: 0px; fill: rgb(41, 0, 214); fill-opacity: 1;"/><path class="point plotly-customdata" transform="translate(19.46,179.85)" d="M3,0A3,3 0 1,1 0,-3A3,3 0 0,1 3,0Z" style="opacity: 1; stroke-width: 0px; fill: rgb(27, 0, 228); fill-opacity: 1;"/><path class="point plotly-customdata" transform="translate(19.46,141.75)" d="M3,0A3,3 0 1,1 0,-3A3,3 0 0,1 3,0Z" style="opacity: 1; stroke-width: 0px; fill: rgb(37, 0, 218); fill-opacity: 1;"/><path class="point plotly-customdata" transform="translate(19.46,78.25)" d="M3,0A3,3 0 1,1 0,-3A3,3 0 0,1 3,0Z" style="opacity: 1; stroke-width: 0px; fill: rgb(29, 0, 226); fill-opacity: 1;"/><path class="point plotly-customdata" transform="translate(19.46,14.75)" d="M3,0A3,3 0 1,1 0,-3A3,3 0 0,1 3,0Z" style="opacity: 1; stroke-width: 0px; fill: rgb(32, 0, 223); fill-opacity: 1;"/><path class="point plotly-customdata" transform="translate(26.52,198.9)" d="M3,0A3,3 0 1,1 0,-3A3,3 0 0,1 3,0Z" style="opacity: 1; stroke-width: 0px; fill: rgb(89, 0, 166); fill-opacity: 1;"/><path class="point plotly-customdata" transform="translate(26.52,192.55)" d="M3,0A3,3 0 1,1 0,-3A3,3 0 0,1 3,0Z" style="opacity: 1; stroke-width: 0px; fill: rgb(78, 0, 177); fill-opacity: 1;"/><path class="point plotly-customdata" transform="translate(26.52,186.2)" d="M3,0A3,3 0 1,1 0,-3A3,3 0 0,1 3,0Z" style="opacity: 1; stroke-width: 0px; fill: rgb(80, 0, 175); fill-opacity: 1;"/><path class="point plotly-customdata" transform="translate(26.52,179.85)" d="M3,0A3,3 0 1,1 0,-3A3,3 0 0,1 3,0Z" style="opacity: 1; stroke-width: 0px; fill: rgb(82, 0, 173); fill-opacity: 1;"/><path class="point plotly-customdata" transform="translate(26.52,141.75)" d="M3,0A3,3 0 1,1 0,-3A3,3 0 0,1 3,0Z" style="opacity: 1; stroke-width: 0px; fill: rgb(78, 0, 177); fill-opacity: 1;"/><path class="point plotly-customdata" transform="translate(26.52,78.25)" d="M3,0A3,3 0 1,1 0,-3A3,3 0 0,1 3,0Z" style="opacity: 1; stroke-width: 0px; fill: rgb(85, 0, 170); fill-opacity: 1;"/><path class="point plotly-customdata" transform="translate(26.52,14.75)" d="M3,0A3,3 0 1,1 0,-3A3,3 0 0,1 3,0Z" style="opacity: 1; stroke-width: 0px; fill: rgb(90, 0, 165); fill-opacity: 1;"/><path class="point plotly-customdata" transform="translate(33.58,198.9)" d="M3,0A3,3 0 1,1 0,-3A3,3 0 0,1 3,0Z" style="opacity: 1; stroke-width: 0px; fill: rgb(125, 0, 130); fill-opacity: 1;"/><path class="point plotly-customdata" transform="translate(33.58,192.55)" d="M3,0A3,3 0 1,1 0,-3A3,3 0 0,1 3,0Z" style="opacity: 1; stroke-width: 0px; fill: rgb(124, 0, 131); fill-opacity: 1;"/><path class="point plotly-customdata" transform="translate(33.58,186.2)" d="M3,0A3,3 0 1,1 0,-3A3,3 0 0,1 3,0Z" style="opacity: 1; stroke-width: 0px; fill: rgb(89, 0, 166); fill-opacity: 1;"/><path class="point plotly-customdata" transform="translate(33.58,179.85)" d="M3,0A3,3 0 1,1 0,-3A3,3 0 0,1 3,0Z" style="opacity: 1; stroke-width: 0px; fill: rgb(115, 0, 140); fill-opacity: 1;"/><path class="point plotly-customdata" transform="translate(33.58,141.75)" d="M3,0A3,3 0 1,1 0,-3A3,3 0 0,1 3,0Z" style="opacity: 1; stroke-width: 0px; fill: rgb(98, 0, 157); fill-opacity: 1;"/><path class="point plotly-customdata" transform="translate(33.58,78.25)" d="M3,0A3,3 0 1,1 0,-3A3,3 0 0,1 3,0Z" style="opacity: 1; stroke-width: 0px; fill: rgb(108, 0, 147); fill-opacity: 1;"/><path class="point plotly-customdata" transform="translate(33.58,14.75)" d="M3,0A3,3 0 1,1 0,-3A3,3 0 0,1 3,0Z" style="opacity: 1; stroke-width: 0px; fill: rgb(110, 0, 145); fill-opacity: 1;"/><path class="point plotly-customdata" transform="translate(40.64,198.9)" d="M3,0A3,3 0 1,1 0,-3A3,3 0 0,1 3,0Z" style="opacity: 1; stroke-width: 0px; fill: rgb(140, 0, 115); fill-opacity: 1;"/><path class="point plotly-customdata" transform="translate(40.64,192.55)" d="M3,0A3,3 0 1,1 0,-3A3,3 0 0,1 3,0Z" style="opacity: 1; stroke-width: 0px; fill: rgb(147, 0, 108); fill-opacity: 1;"/><path class="point plotly-customdata" transform="translate(40.64,186.2)" d="M3,0A3,3 0 1,1 0,-3A3,3 0 0,1 3,0Z" style="opacity: 1; stroke-width: 0px; fill: rgb(137, 0, 118); fill-opacity: 1;"/><path class="point plotly-customdata" transform="translate(40.64,179.85)" d="M3,0A3,3 0 1,1 0,-3A3,3 0 0,1 3,0Z" style="opacity: 1; stroke-width: 0px; fill: rgb(137, 0, 118); fill-opacity: 1;"/><path class="point plotly-customdata" transform="translate(40.64,141.75)" d="M3,0A3,3 0 1,1 0,-3A3,3 0 0,1 3,0Z" style="opacity: 1; stroke-width: 0px; fill: rgb(130, 0, 125); fill-opacity: 1;"/><path class="point plotly-customdata" transform="translate(40.64,78.25)" d="M3,0A3,3 0 1,1 0,-3A3,3 0 0,1 3,0Z" style="opacity: 1; stroke-width: 0px; fill: rgb(136, 0, 119); fill-opacity: 1;"/><path class="point plotly-customdata" transform="translate(40.64,14.75)" d="M3,0A3,3 0 1,1 0,-3A3,3 0 0,1 3,0Z" style="opacity: 1; stroke-width: 0px; fill: rgb(136, 0, 119); fill-opacity: 1;"/><path class="point plotly-customdata" transform="translate(83,141.75)" d="M3,0A3,3 0 1,1 0,-3A3,3 0 0,1 3,0Z" style="opacity: 1; stroke-width: 0px; fill: rgb(191, 0, 64); fill-opacity: 1;"/><path class="point plotly-customdata" transform="translate(83,78.25)" d="M3,0A3,3 0 1,1 0,-3A3,3 0 0,1 3,0Z" style="opacity: 1; stroke-width: 0px; fill: rgb(175, 0, 80); fill-opacity: 1;"/><path class="point plotly-customdata" transform="translate(83,14.75)" d="M3,0A3,3 0 1,1 0,-3A3,3 0 0,1 3,0Z" style="opacity: 1; stroke-width: 0px; fill: rgb(166, 0, 89); fill-opacity: 1;"/><path class="point plotly-customdata" transform="translate(153.59,141.75)" d="M3,0A3,3 0 1,1 0,-3A3,3 0 0,1 3,0Z" style="opacity: 1; stroke-width: 0px; fill: rgb(202, 0, 53); fill-opacity: 1;"/><path class="point plotly-customdata" transform="translate(153.59,78.25)" d="M3,0A3,3 0 1,1 0,-3A3,3 0 0,1 3,0Z" style="opacity: 1; stroke-width: 0px; fill: rgb(196, 0, 59); fill-opacity: 1;"/><path class="point plotly-customdata" transform="translate(224.18,141.75)" d="M3,0A3,3 0 1,1 0,-3A3,3 0 0,1 3,0Z" style="opacity: 1; stroke-width: 0px; fill: rgb(211, 0, 44); fill-opacity: 1;"/></g><g class="text"/></g></g></g><g class="overplot"/><path class="xlines-above crisp" d="M0,0" style="fill: none;"/><path class="ylines-above crisp" d="M0,0" style="fill: none;"/><g class="overlines-above"/><g class="xaxislayer-above"><g class="xtick"><text text-anchor="middle" x="0" y="339" transform="translate(92.4,0)" style="font-family: 'Open Sans', verdana, arial, sans-serif; font-size: 18px; fill: rgb(42, 63, 95); fill-opacity: 1; white-space: pre; opacity: 1;">0</text></g><g class="xtick"><text text-anchor="middle" x="0" y="339" style="font-family: 'Open Sans', verdana, arial, sans-serif; font-size: 18px; fill: rgb(42, 63, 95); fill-opacity: 1; white-space: pre; opacity: 1;" transform="translate(233.59,0)">0.5</text></g><g class="xtick"><text text-anchor="middle" x="0" y="339" style="font-family: 'Open Sans', verdana, arial, sans-serif; font-size: 18px; fill: rgb(42, 63, 95); fill-opacity: 1; white-space: pre; opacity: 1;" transform="translate(374.78,0)">1</text></g></g><g class="yaxislayer-above"><g class="ytick"><text text-anchor="end" x="79" y="6.3" transform="translate(0,305.25)" style="font-family: 'Open Sans', verdana, arial, sans-serif; font-size: 18px; fill: rgb(42, 63, 95); fill-opacity: 1; white-space: pre; opacity: 1;">0</text></g><g class="ytick"><text text-anchor="end" x="79" y="6.3" style="font-family: 'Open Sans', verdana, arial, sans-serif; font-size: 18px; fill: rgb(42, 63, 95); fill-opacity: 1; white-space: pre; opacity: 1;" transform="translate(0,254.45)">0.2</text></g><g class="ytick"><text text-anchor="end" x="79" y="6.3" style="font-family: 'Open Sans', verdana, arial, sans-serif; font-size: 18px; fill: rgb(42, 63, 95); fill-opacity: 1; white-space: pre; opacity: 1;" transform="translate(0,203.65)">0.4</text></g><g class="ytick"><text text-anchor="end" x="79" y="6.3" style="font-family: 'Open Sans', verdana, arial, sans-serif; font-size: 18px; fill: rgb(42, 63, 95); fill-opacity: 1; white-space: pre; opacity: 1;" transform="translate(0,152.85)">0.6</text></g><g class="ytick"><text text-anchor="end" x="79" y="6.3" style="font-family: 'Open Sans', verdana, arial, sans-serif; font-size: 18px; fill: rgb(42, 63, 95); fill-opacity: 1; white-space: pre; opacity: 1;" transform="translate(0,102.05)">0.8</text></g></g><g class="overaxes-above"/></g><g class="subplot x2y2"><g class="layer-subplot"><g class="shapelayer"/><g class="imagelayer"/></g><g class="minor-gridlayer"><g class="x2"/><g class="y2"/></g><g class="gridlayer"><g class="x2"><path class="x2grid crisp" transform="translate(567.47,0)" d="M0,100v220" style="stroke: rgb(255, 255, 255); stroke-opacity: 1; stroke-width: 1px;"/><path class="x2grid crisp" transform="translate(708.66,0)" d="M0,100v220" style="stroke: rgb(255, 255, 255); stroke-opacity: 1; stroke-width: 1px;"/></g><g class="y2"><path class="y2grid crisp" transform="translate(0,254.45)" d="M413.88,0h314.23999999999995" style="stroke: rgb(255, 255, 255); stroke-opacity: 1; stroke-width: 1px;"/><path class="y2grid crisp" transform="translate(0,203.65)" d="M413.88,0h314.23999999999995" style="stroke: rgb(255, 255, 255); stroke-opacity: 1; stroke-width: 1px;"/><path class="y2grid crisp" transform="translate(0,152.85)" d="M413.88,0h314.23999999999995" style="stroke: rgb(255, 255, 255); stroke-opacity: 1; stroke-width: 1px;"/><path class="y2grid crisp" transform="translate(0,102.05)" d="M413.88,0h314.23999999999995" style="stroke: rgb(255, 255, 255); stroke-opacity: 1; stroke-width: 1px;"/></g></g><g class="zerolinelayer"><path class="x2zl zl crisp" transform="translate(426.28,0)" d="M0,100v220" style="stroke: rgb(255, 255, 255); stroke-opacity: 1; stroke-width: 2px;"/><path class="y2zl zl crisp" transform="translate(0,305.25)" d="M413.88,0h314.23999999999995" style="stroke: rgb(255, 255, 255); stroke-opacity: 1; stroke-width: 2px;"/></g><path class="xlines-below"/><path class="ylines-below"/><g class="overlines-below"/><g class="xaxislayer-below"/><g class="yaxislayer-below"/><g class="overaxes-below"/><g class="plot" transform="translate(413.88,100)" clip-path="url(#clip48217bx2y2plot)"><g class="scatterlayer mlayer"><g class="trace scatter trace3c0abb" style="stroke-miterlimit: 2; opacity: 1;"><g class="fills"/><g class="errorbars"/><g class="lines"/><g class="points"><path class="point plotly-customdata" transform="translate(19.46,205.25)" d="M3,0A3,3 0 1,1 0,-3A3,3 0 0,1 3,0Z" style="opacity: 1; stroke-width: 0px; fill: rgb(23, 0, 232); fill-opacity: 1;"/><path class="point plotly-customdata" transform="translate(26.52,205.25)" d="M3,0A3,3 0 1,1 0,-3A3,3 0 0,1 3,0Z" style="opacity: 1; stroke-width: 0px; fill: rgb(43, 0, 212); fill-opacity: 1;"/><path class="point plotly-customdata" transform="translate(33.58,205.25)" d="M3,0A3,3 0 1,1 0,-3A3,3 0 0,1 3,0Z" style="opacity: 1; stroke-width: 0px; fill: rgb(45, 0, 210); fill-opacity: 1;"/><path class="point plotly-customdata" transform="translate(40.64,205.25)" d="M3,0A3,3 0 1,1 0,-3A3,3 0 0,1 3,0Z" style="opacity: 1; stroke-width: 0px; fill: rgb(36, 0, 219); fill-opacity: 1;"/><path class="point plotly-customdata" transform="translate(83,205.25)" d="M3,0A3,3 0 1,1 0,-3A3,3 0 0,1 3,0Z" style="opacity: 1; stroke-width: 0px; fill: rgb(63, 0, 192); fill-opacity: 1;"/><path class="point plotly-customdata" transform="translate(153.59,205.25)" d="M3,0A3,3 0 1,1 0,-3A3,3 0 0,1 3,0Z" style="opacity: 1; stroke-width: 0px; fill: rgb(101, 0, 154); fill-opacity: 1;"/><path class="point plotly-customdata" transform="translate(224.18,205.25)" d="M3,0A3,3 0 1,1 0,-3A3,3 0 0,1 3,0Z" style="opacity: 1; stroke-width: 0px; fill: rgb(114, 0, 141); fill-opacity: 1;"/><path class="point plotly-customdata" transform="translate(294.78,205.25)" d="M3,0A3,3 0 1,1 0,-3A3,3 0 0,1 3,0Z" style="opacity: 1; stroke-width: 0px; fill: rgb(113, 0, 142); fill-opacity: 1;"/><path class="point plotly-customdata" transform="translate(19.46,198.9)" d="M3,0A3,3 0 1,1 0,-3A3,3 0 0,1 3,0Z" style="opacity: 1; stroke-width: 0px; fill: rgb(16, 0, 239); fill-opacity: 1;"/><path class="point plotly-customdata" transform="translate(19.46,192.55)" d="M3,0A3,3 0 1,1 0,-3A3,3 0 0,1 3,0Z" style="opacity: 1; stroke-width: 0px; fill: rgb(15, 0, 240); fill-opacity: 1;"/><path class="point plotly-customdata" transform="translate(19.46,186.2)" d="M3,0A3,3 0 1,1 0,-3A3,3 0 0,1 3,0Z" style="opacity: 1; stroke-width: 0px; fill: rgb(10, 0, 245); fill-opacity: 1;"/><path class="point plotly-customdata" transform="translate(19.46,179.85)" d="M3,0A3,3 0 1,1 0,-3A3,3 0 0,1 3,0Z" style="opacity: 1; stroke-width: 0px; fill: rgb(26, 0, 229); fill-opacity: 1;"/><path class="point plotly-customdata" transform="translate(19.46,141.75)" d="M3,0A3,3 0 1,1 0,-3A3,3 0 0,1 3,0Z" style="opacity: 1; stroke-width: 0px; fill: rgb(16, 0, 239); fill-opacity: 1;"/><path class="point plotly-customdata" transform="translate(19.46,78.25)" d="M3,0A3,3 0 1,1 0,-3A3,3 0 0,1 3,0Z" style="opacity: 1; stroke-width: 0px; fill: rgb(21, 0, 234); fill-opacity: 1;"/><path class="point plotly-customdata" transform="translate(19.46,14.75)" d="M3,0A3,3 0 1,1 0,-3A3,3 0 0,1 3,0Z" style="opacity: 1; stroke-width: 0px; fill: rgb(18, 0, 237); fill-opacity: 1;"/><path class="point plotly-customdata" transform="translate(26.52,198.9)" d="M3,0A3,3 0 1,1 0,-3A3,3 0 0,1 3,0Z" style="opacity: 1; stroke-width: 0px; fill: rgb(30, 0, 225); fill-opacity: 1;"/><path class="point plotly-customdata" transform="translate(26.52,192.55)" d="M3,0A3,3 0 1,1 0,-3A3,3 0 0,1 3,0Z" style="opacity: 1; stroke-width: 0px; fill: rgb(25, 0, 230); fill-opacity: 1;"/><path class="point plotly-customdata" transform="translate(26.52,186.2)" d="M3,0A3,3 0 1,1 0,-3A3,3 0 0,1 3,0Z" style="opacity: 1; stroke-width: 0px; fill: rgb(19, 0, 236); fill-opacity: 1;"/><path class="point plotly-customdata" transform="translate(26.52,179.85)" d="M3,0A3,3 0 1,1 0,-3A3,3 0 0,1 3,0Z" style="opacity: 1; stroke-width: 0px; fill: rgb(9, 0, 246); fill-opacity: 1;"/><path class="point plotly-customdata" transform="translate(26.52,141.75)" d="M3,0A3,3 0 1,1 0,-3A3,3 0 0,1 3,0Z" style="opacity: 1; stroke-width: 0px; fill: rgb(12, 0, 243); fill-opacity: 1;"/><path class="point plotly-customdata" transform="translate(26.52,78.25)" d="M3,0A3,3 0 1,1 0,-3A3,3 0 0,1 3,0Z" style="opacity: 1; stroke-width: 0px; fill: rgb(17, 0, 238); fill-opacity: 1;"/><path class="point plotly-customdata" transform="translate(26.52,14.75)" d="M3,0A3,3 0 1,1 0,-3A3,3 0 0,1 3,0Z" style="opacity: 1; stroke-width: 0px; fill: rgb(0, 0, 255); fill-opacity: 1;"/><path class="point plotly-customdata" transform="translate(33.58,198.9)" d="M3,0A3,3 0 1,1 0,-3A3,3 0 0,1 3,0Z" style="opacity: 1; stroke-width: 0px; fill: rgb(20, 0, 235); fill-opacity: 1;"/><path class="point plotly-customdata" transform="translate(33.58,192.55)" d="M3,0A3,3 0 1,1 0,-3A3,3 0 0,1 3,0Z" style="opacity: 1; stroke-width: 0px; fill: rgb(42, 0, 213); fill-opacity: 1;"/><path class="point plotly-customdata" transform="translate(33.58,186.2)" d="M3,0A3,3 0 1,1 0,-3A3,3 0 0,1 3,0Z" style="opacity: 1; stroke-width: 0px; fill: rgb(27, 0, 228); fill-opacity: 1;"/><path class="point plotly-customdata" transform="translate(33.58,179.85)" d="M3,0A3,3 0 1,1 0,-3A3,3 0 0,1 3,0Z" style="opacity: 1; stroke-width: 0px; fill: rgb(43, 0, 212); fill-opacity: 1;"/><path class="point plotly-customdata" transform="translate(33.58,141.75)" d="M3,0A3,3 0 1,1 0,-3A3,3 0 0,1 3,0Z" style="opacity: 1; stroke-width: 0px; fill: rgb(11, 0, 244); fill-opacity: 1;"/><path class="point plotly-customdata" transform="translate(33.58,78.25)" d="M3,0A3,3 0 1,1 0,-3A3,3 0 0,1 3,0Z" style="opacity: 1; stroke-width: 0px; fill: rgb(15, 0, 240); fill-opacity: 1;"/><path class="point plotly-customdata" transform="translate(33.58,14.75)" d="M3,0A3,3 0 1,1 0,-3A3,3 0 0,1 3,0Z" style="opacity: 1; stroke-width: 0px; fill: rgb(19, 0, 236); fill-opacity: 1;"/><path class="point plotly-customdata" transform="translate(40.64,198.9)" d="M3,0A3,3 0 1,1 0,-3A3,3 0 0,1 3,0Z" style="opacity: 1; stroke-width: 0px; fill: rgb(34, 0, 221); fill-opacity: 1;"/><path class="point plotly-customdata" transform="translate(40.64,192.55)" d="M3,0A3,3 0 1,1 0,-3A3,3 0 0,1 3,0Z" style="opacity: 1; stroke-width: 0px; fill: rgb(39, 0, 216); fill-opacity: 1;"/><path class="point plotly-customdata" transform="translate(40.64,186.2)" d="M3,0A3,3 0 1,1 0,-3A3,3 0 0,1 3,0Z" style="opacity: 1; stroke-width: 0px; fill: rgb(19, 0, 236); fill-opacity: 1;"/><path class="point plotly-customdata" transform="translate(40.64,179.85)" d="M3,0A3,3 0 1,1 0,-3A3,3 0 0,1 3,0Z" style="opacity: 1; stroke-width: 0px; fill: rgb(25, 0, 230); fill-opacity: 1;"/><path class="point plotly-customdata" transform="translate(40.64,141.75)" d="M3,0A3,3 0 1,1 0,-3A3,3 0 0,1 3,0Z" style="opacity: 1; stroke-width: 0px; fill: rgb(28, 0, 227); fill-opacity: 1;"/><path class="point plotly-customdata" transform="translate(40.64,78.25)" d="M3,0A3,3 0 1,1 0,-3A3,3 0 0,1 3,0Z" style="opacity: 1; stroke-width: 0px; fill: rgb(38, 0, 217); fill-opacity: 1;"/><path class="point plotly-customdata" transform="translate(40.64,14.75)" d="M3,0A3,3 0 1,1 0,-3A3,3 0 0,1 3,0Z" style="opacity: 1; stroke-width: 0px; fill: rgb(28, 0, 227); fill-opacity: 1;"/><path class="point plotly-customdata" transform="translate(83,141.75)" d="M3,0A3,3 0 1,1 0,-3A3,3 0 0,1 3,0Z" style="opacity: 1; stroke-width: 0px; fill: rgb(41, 0, 214); fill-opacity: 1;"/><path class="point plotly-customdata" transform="translate(83,78.25)" d="M3,0A3,3 0 1,1 0,-3A3,3 0 0,1 3,0Z" style="opacity: 1; stroke-width: 0px; fill: rgb(35, 0, 220); fill-opacity: 1;"/><path class="point plotly-customdata" transform="translate(83,14.75)" d="M3,0A3,3 0 1,1 0,-3A3,3 0 0,1 3,0Z" style="opacity: 1; stroke-width: 0px; fill: rgb(22, 0, 233); fill-opacity: 1;"/><path class="point plotly-customdata" transform="translate(153.59,141.75)" d="M3,0A3,3 0 1,1 0,-3A3,3 0 0,1 3,0Z" style="opacity: 1; stroke-width: 0px; fill: rgb(61, 0, 194); fill-opacity: 1;"/><path class="point plotly-customdata" transform="translate(153.59,78.25)" d="M3,0A3,3 0 1,1 0,-3A3,3 0 0,1 3,0Z" style="opacity: 1; stroke-width: 0px; fill: rgb(47, 0, 208); fill-opacity: 1;"/><path class="point plotly-customdata" transform="translate(224.18,141.75)" d="M3,0A3,3 0 1,1 0,-3A3,3 0 0,1 3,0Z" style="opacity: 1; stroke-width: 0px; fill: rgb(79, 0, 176); fill-opacity: 1;"/></g><g class="text"/></g></g></g><g class="overplot"/><path class="xlines-above crisp" d="M0,0" style="fill: none;"/><path class="ylines-above crisp" d="M0,0" style="fill: none;"/><g class="overlines-above"/><g class="xaxislayer-above"><g class="x2tick"><text text-anchor="middle" x="0" y="339" transform="translate(426.28,0)" style="font-family: 'Open Sans', verdana, arial, sans-serif; font-size: 18px; fill: rgb(42, 63, 95); fill-opacity: 1; white-space: pre; opacity: 1;">0</text></g><g class="x2tick"><text text-anchor="middle" x="0" y="339" style="font-family: 'Open Sans', verdana, arial, sans-serif; font-size: 18px; fill: rgb(42, 63, 95); fill-opacity: 1; white-space: pre; opacity: 1;" transform="translate(567.47,0)">0.5</text></g><g class="x2tick"><text text-anchor="middle" x="0" y="339" style="font-family: 'Open Sans', verdana, arial, sans-serif; font-size: 18px; fill: rgb(42, 63, 95); fill-opacity: 1; white-space: pre; opacity: 1;" transform="translate(708.66,0)">1</text></g></g><g class="yaxislayer-above"/><g class="overaxes-above"/></g><g class="subplot x3y3"><g class="layer-subplot"><g class="shapelayer"/><g class="imagelayer"/></g><g class="minor-gridlayer"><g class="x3"/><g class="y3"/></g><g class="gridlayer"><g class="x3"><path class="x3grid crisp" transform="translate(901.35,0)" d="M0,100v220" style="stroke: rgb(255, 255, 255); stroke-opacity: 1; stroke-width: 1px;"/><path class="x3grid crisp" transform="translate(1042.54,0)" d="M0,100v220" style="stroke: rgb(255, 255, 255); stroke-opacity: 1; stroke-width: 1px;"/></g><g class="y3"><path class="y3grid crisp" transform="translate(0,254.45)" d="M747.76,0h314.23999999999995" style="stroke: rgb(255, 255, 255); stroke-opacity: 1; stroke-width: 1px;"/><path class="y3grid crisp" transform="translate(0,203.65)" d="M747.76,0h314.23999999999995" style="stroke: rgb(255, 255, 255); stroke-opacity: 1; stroke-width: 1px;"/><path class="y3grid crisp" transform="translate(0,152.85)" d="M747.76,0h314.23999999999995" style="stroke: rgb(255, 255, 255); stroke-opacity: 1; stroke-width: 1px;"/><path class="y3grid crisp" transform="translate(0,102.05)" d="M747.76,0h314.23999999999995" style="stroke: rgb(255, 255, 255); stroke-opacity: 1; stroke-width: 1px;"/></g></g><g class="zerolinelayer"><path class="x3zl zl crisp" transform="translate(760.16,0)" d="M0,100v220" style="stroke: rgb(255, 255, 255); stroke-opacity: 1; stroke-width: 2px;"/><path class="y3zl zl crisp" transform="translate(0,305.25)" d="M747.76,0h314.23999999999995" style="stroke: rgb(255, 255, 255); stroke-opacity: 1; stroke-width: 2px;"/></g><path class="xlines-below"/><path class="ylines-below"/><g class="overlines-below"/><g class="xaxislayer-below"/><g class="yaxislayer-below"/><g class="overaxes-below"/><g class="plot" transform="translate(747.76,100)" clip-path="url(#clip48217bx3y3plot)"><g class="scatterlayer mlayer"><g class="trace scatter trace277b1c" style="stroke-miterlimit: 2; opacity: 1;"><g class="fills"/><g class="errorbars"/><g class="lines"/><g class="points"><path class="point plotly-customdata" transform="translate(19.46,205.25)" d="M3,0A3,3 0 1,1 0,-3A3,3 0 0,1 3,0Z" style="opacity: 1; stroke-width: 0px; fill: rgb(47, 0, 208); fill-opacity: 1;"/><path class="point plotly-customdata" transform="translate(26.52,205.25)" d="M3,0A3,3 0 1,1 0,-3A3,3 0 0,1 3,0Z" style="opacity: 1; stroke-width: 0px; fill: rgb(112, 0, 143); fill-opacity: 1;"/><path class="point plotly-customdata" transform="translate(33.58,205.25)" d="M3,0A3,3 0 1,1 0,-3A3,3 0 0,1 3,0Z" style="opacity: 1; stroke-width: 0px; fill: rgb(117, 0, 138); fill-opacity: 1;"/><path class="point plotly-customdata" transform="translate(40.64,205.25)" d="M3,0A3,3 0 1,1 0,-3A3,3 0 0,1 3,0Z" style="opacity: 1; stroke-width: 0px; fill: rgb(176, 0, 79); fill-opacity: 1;"/><path class="point plotly-customdata" transform="translate(83,205.25)" d="M3,0A3,3 0 1,1 0,-3A3,3 0 0,1 3,0Z" style="opacity: 1; stroke-width: 0px; fill: rgb(216, 0, 39); fill-opacity: 1;"/><path class="point plotly-customdata" transform="translate(153.59,205.25)" d="M3,0A3,3 0 1,1 0,-3A3,3 0 0,1 3,0Z" style="opacity: 1; stroke-width: 0px; fill: rgb(234, 0, 21); fill-opacity: 1;"/><path class="point plotly-customdata" transform="translate(224.18,205.25)" d="M3,0A3,3 0 1,1 0,-3A3,3 0 0,1 3,0Z" style="opacity: 1; stroke-width: 0px; fill: rgb(250, 0, 5); fill-opacity: 1;"/><path class="point plotly-customdata" transform="translate(294.78,205.25)" d="M3,0A3,3 0 1,1 0,-3A3,3 0 0,1 3,0Z" style="opacity: 1; stroke-width: 0px; fill: rgb(255, 0, 0); fill-opacity: 1;"/><path class="point plotly-customdata" transform="translate(19.46,198.9)" d="M3,0A3,3 0 1,1 0,-3A3,3 0 0,1 3,0Z" style="opacity: 1; stroke-width: 0px; fill: rgb(23, 0, 232); fill-opacity: 1;"/><path class="point plotly-customdata" transform="translate(19.46,192.55)" d="M3,0A3,3 0 1,1 0,-3A3,3 0 0,1 3,0Z" style="opacity: 1; stroke-width: 0px; fill: rgb(19, 0, 236); fill-opacity: 1;"/><path class="point plotly-customdata" transform="translate(19.46,186.2)" d="M3,0A3,3 0 1,1 0,-3A3,3 0 0,1 3,0Z" style="opacity: 1; stroke-width: 0px; fill: rgb(34, 0, 221); fill-opacity: 1;"/><path class="point plotly-customdata" transform="translate(19.46,179.85)" d="M3,0A3,3 0 1,1 0,-3A3,3 0 0,1 3,0Z" style="opacity: 1; stroke-width: 0px; fill: rgb(12, 0, 243); fill-opacity: 1;"/><path class="point plotly-customdata" transform="translate(19.46,141.75)" d="M3,0A3,3 0 1,1 0,-3A3,3 0 0,1 3,0Z" style="opacity: 1; stroke-width: 0px; fill: rgb(15, 0, 240); fill-opacity: 1;"/><path class="point plotly-customdata" transform="translate(19.46,78.25)" d="M3,0A3,3 0 1,1 0,-3A3,3 0 0,1 3,0Z" style="opacity: 1; stroke-width: 0px; fill: rgb(20, 0, 235); fill-opacity: 1;"/><path class="point plotly-customdata" transform="translate(19.46,14.75)" d="M3,0A3,3 0 1,1 0,-3A3,3 0 0,1 3,0Z" style="opacity: 1; stroke-width: 0px; fill: rgb(30, 0, 225); fill-opacity: 1;"/><path class="point plotly-customdata" transform="translate(26.52,198.9)" d="M3,0A3,3 0 1,1 0,-3A3,3 0 0,1 3,0Z" style="opacity: 1; stroke-width: 0px; fill: rgb(64, 0, 191); fill-opacity: 1;"/><path class="point plotly-customdata" transform="translate(26.52,192.55)" d="M3,0A3,3 0 1,1 0,-3A3,3 0 0,1 3,0Z" style="opacity: 1; stroke-width: 0px; fill: rgb(44, 0, 211); fill-opacity: 1;"/><path class="point plotly-customdata" transform="translate(26.52,186.2)" d="M3,0A3,3 0 1,1 0,-3A3,3 0 0,1 3,0Z" style="opacity: 1; stroke-width: 0px; fill: rgb(88, 0, 167); fill-opacity: 1;"/><path class="point plotly-customdata" transform="translate(26.52,179.85)" d="M3,0A3,3 0 1,1 0,-3A3,3 0 0,1 3,0Z" style="opacity: 1; stroke-width: 0px; fill: rgb(28, 0, 227); fill-opacity: 1;"/><path class="point plotly-customdata" transform="translate(26.52,141.75)" d="M3,0A3,3 0 1,1 0,-3A3,3 0 0,1 3,0Z" style="opacity: 1; stroke-width: 0px; fill: rgb(73, 0, 182); fill-opacity: 1;"/><path class="point plotly-customdata" transform="translate(26.52,78.25)" d="M3,0A3,3 0 1,1 0,-3A3,3 0 0,1 3,0Z" style="opacity: 1; stroke-width: 0px; fill: rgb(85, 0, 170); fill-opacity: 1;"/><path class="point plotly-customdata" transform="translate(26.52,14.75)" d="M3,0A3,3 0 1,1 0,-3A3,3 0 0,1 3,0Z" style="opacity: 1; stroke-width: 0px; fill: rgb(44, 0, 211); fill-opacity: 1;"/><path class="point plotly-customdata" transform="translate(33.58,198.9)" d="M3,0A3,3 0 1,1 0,-3A3,3 0 0,1 3,0Z" style="opacity: 1; stroke-width: 0px; fill: rgb(107, 0, 148); fill-opacity: 1;"/><path class="point plotly-customdata" transform="translate(33.58,192.55)" d="M3,0A3,3 0 1,1 0,-3A3,3 0 0,1 3,0Z" style="opacity: 1; stroke-width: 0px; fill: rgb(99, 0, 156); fill-opacity: 1;"/><path class="point plotly-customdata" transform="translate(33.58,186.2)" d="M3,0A3,3 0 1,1 0,-3A3,3 0 0,1 3,0Z" style="opacity: 1; stroke-width: 0px; fill: rgb(93, 0, 162); fill-opacity: 1;"/><path class="point plotly-customdata" transform="translate(33.58,179.85)" d="M3,0A3,3 0 1,1 0,-3A3,3 0 0,1 3,0Z" style="opacity: 1; stroke-width: 0px; fill: rgb(88, 0, 167); fill-opacity: 1;"/><path class="point plotly-customdata" transform="translate(33.58,141.75)" d="M3,0A3,3 0 1,1 0,-3A3,3 0 0,1 3,0Z" style="opacity: 1; stroke-width: 0px; fill: rgb(78, 0, 177); fill-opacity: 1;"/><path class="point plotly-customdata" transform="translate(33.58,78.25)" d="M3,0A3,3 0 1,1 0,-3A3,3 0 0,1 3,0Z" style="opacity: 1; stroke-width: 0px; fill: rgb(92, 0, 163); fill-opacity: 1;"/><path class="point plotly-customdata" transform="translate(33.58,14.75)" d="M3,0A3,3 0 1,1 0,-3A3,3 0 0,1 3,0Z" style="opacity: 1; stroke-width: 0px; fill: rgb(85, 0, 170); fill-opacity: 1;"/><path class="point plotly-customdata" transform="translate(40.64,198.9)" d="M3,0A3,3 0 1,1 0,-3A3,3 0 0,1 3,0Z" style="opacity: 1; stroke-width: 0px; fill: rgb(149, 0, 106); fill-opacity: 1;"/><path class="point plotly-customdata" transform="translate(40.64,192.55)" d="M3,0A3,3 0 1,1 0,-3A3,3 0 0,1 3,0Z" style="opacity: 1; stroke-width: 0px; fill: rgb(148, 0, 107); fill-opacity: 1;"/><path class="point plotly-customdata" transform="translate(40.64,186.2)" d="M3,0A3,3 0 1,1 0,-3A3,3 0 0,1 3,0Z" style="opacity: 1; stroke-width: 0px; fill: rgb(124, 0, 131); fill-opacity: 1;"/><path class="point plotly-customdata" transform="translate(40.64,179.85)" d="M3,0A3,3 0 1,1 0,-3A3,3 0 0,1 3,0Z" style="opacity: 1; stroke-width: 0px; fill: rgb(137, 0, 118); fill-opacity: 1;"/><path class="point plotly-customdata" transform="translate(40.64,141.75)" d="M3,0A3,3 0 1,1 0,-3A3,3 0 0,1 3,0Z" style="opacity: 1; stroke-width: 0px; fill: rgb(128, 0, 127); fill-opacity: 1;"/><path class="point plotly-customdata" transform="translate(40.64,78.25)" d="M3,0A3,3 0 1,1 0,-3A3,3 0 0,1 3,0Z" style="opacity: 1; stroke-width: 0px; fill: rgb(126, 0, 129); fill-opacity: 1;"/><path class="point plotly-customdata" transform="translate(40.64,14.75)" d="M3,0A3,3 0 1,1 0,-3A3,3 0 0,1 3,0Z" style="opacity: 1; stroke-width: 0px; fill: rgb(130, 0, 125); fill-opacity: 1;"/><path class="point plotly-customdata" transform="translate(83,141.75)" d="M3,0A3,3 0 1,1 0,-3A3,3 0 0,1 3,0Z" style="opacity: 1; stroke-width: 0px; fill: rgb(171, 0, 84); fill-opacity: 1;"/><path class="point plotly-customdata" transform="translate(83,78.25)" d="M3,0A3,3 0 1,1 0,-3A3,3 0 0,1 3,0Z" style="opacity: 1; stroke-width: 0px; fill: rgb(154, 0, 101); fill-opacity: 1;"/><path class="point plotly-customdata" transform="translate(83,14.75)" d="M3,0A3,3 0 1,1 0,-3A3,3 0 0,1 3,0Z" style="opacity: 1; stroke-width: 0px; fill: rgb(158, 0, 97); fill-opacity: 1;"/><path class="point plotly-customdata" transform="translate(153.59,141.75)" d="M3,0A3,3 0 1,1 0,-3A3,3 0 0,1 3,0Z" style="opacity: 1; stroke-width: 0px; fill: rgb(216, 0, 39); fill-opacity: 1;"/><path class="point plotly-customdata" transform="translate(153.59,78.25)" d="M3,0A3,3 0 1,1 0,-3A3,3 0 0,1 3,0Z" style="opacity: 1; stroke-width: 0px; fill: rgb(199, 0, 56); fill-opacity: 1;"/><path class="point plotly-customdata" transform="translate(224.18,141.75)" d="M3,0A3,3 0 1,1 0,-3A3,3 0 0,1 3,0Z" style="opacity: 1; stroke-width: 0px; fill: rgb(236, 0, 19); fill-opacity: 1;"/></g><g class="text"/></g></g></g><g class="overplot"/><path class="xlines-above crisp" d="M0,0" style="fill: none;"/><path class="ylines-above crisp" d="M0,0" style="fill: none;"/><g class="overlines-above"/><g class="xaxislayer-above"><g class="x3tick"><text text-anchor="middle" x="0" y="339" transform="translate(760.16,0)" style="font-family: 'Open Sans', verdana, arial, sans-serif; font-size: 18px; fill: rgb(42, 63, 95); fill-opacity: 1; white-space: pre; opacity: 1;">0</text></g><g class="x3tick"><text text-anchor="middle" x="0" y="339" style="font-family: 'Open Sans', verdana, arial, sans-serif; font-size: 18px; fill: rgb(42, 63, 95); fill-opacity: 1; white-space: pre; opacity: 1;" transform="translate(901.35,0)">0.5</text></g><g class="x3tick"><text text-anchor="middle" x="0" y="339" style="font-family: 'Open Sans', verdana, arial, sans-serif; font-size: 18px; fill: rgb(42, 63, 95); fill-opacity: 1; white-space: pre; opacity: 1;" transform="translate(1042.54,0)">1</text></g></g><g class="yaxislayer-above"/><g class="overaxes-above"/></g></g><g class="polarlayer"/><g class="smithlayer"/><g class="ternarylayer"/><g class="geolayer"/><g class="funnelarealayer"/><g class="pielayer"/><g class="iciclelayer"/><g class="treemaplayer"/><g class="sunburstlayer"/><g class="glimages"/><defs id="topdefs-48217b"><g class="clips"/></defs><g class="layer-above"><g class="imagelayer"/><g class="shapelayer"/></g><g class="infolayer"><g class="cbcoloraxis colorbar" transform="translate(80,100)"><rect class="cbbg" x="1002" y="0" width="106.5625" height="220" style="fill: rgb(0, 0, 0); fill-opacity: 0; stroke: rgb(68, 68, 68); stroke-opacity: 1; stroke-width: 0;"/><g class="cbfills" transform="translate(0,40)"><rect class="cbfill gradient_filled" x="1012" y="0" width="30" height="170" style="fill: url('#g48217b-cbcoloraxis');"/></g><g class="cblines" transform="translate(0,40)"/><g class="cbaxis crisp" transform="translate(0,-100)"><g class="ycbcoloraxistick"><text text-anchor="start" x="1046.1" y="6.3" transform="translate(0,267.08)" style="font-family: 'Open Sans', verdana, arial, sans-serif; font-size: 18px; fill: rgb(42, 63, 95); fill-opacity: 1; white-space: pre; opacity: 1;">0.55</text></g><g class="ycbcoloraxistick"><text text-anchor="start" x="1046.1" y="6.3" style="font-family: 'Open Sans', verdana, arial, sans-serif; font-size: 18px; fill: rgb(42, 63, 95); fill-opacity: 1; white-space: pre; opacity: 1;" transform="translate(0,220.01)">0.6</text></g><g class="ycbcoloraxistick"><text text-anchor="start" x="1046.1" y="6.3" style="font-family: 'Open Sans', verdana, arial, sans-serif; font-size: 18px; fill: rgb(42, 63, 95); fill-opacity: 1; white-space: pre; opacity: 1;" transform="translate(0,172.95)">0.65</text></g></g><g class="cbtitleunshift" transform="translate(-80,-100)"><g class="cbtitle" transform=""><text class="ycbcoloraxistitle" x="1091.6399999999999" y="129.5" text-anchor="start" style="font-family: 'Open Sans', verdana, arial, sans-serif; font-size: 22px; fill: rgb(42, 63, 95); opacity: 1; font-weight: normal; white-space: pre;">test.acc</text></g></g><rect class="cboutline" x="1012" y="40" width="30" height="170" style="stroke: rgb(68, 68, 68); stroke-opacity: 1; fill: none; stroke-width: 0;"/></g><g class="g-gtitle"><text class="gtitle" x="60" y="50" text-anchor="start" dy="0em" style="font-family: 'Open Sans', verdana, arial, sans-serif; font-size: 25px; fill: rgb(42, 63, 95); opacity: 1; font-weight: normal; white-space: pre;">higgs</text></g><g class="g-xtitle"><text class="xtitle" x="237.11999999999998" y="372.9" text-anchor="middle" style="font-family: 'Open Sans', verdana, arial, sans-serif; font-size: 22px; fill: rgb(42, 63, 95); opacity: 1; font-weight: normal; white-space: pre;">l_split</text></g><g class="g-x2title"><text class="x2title" x="571" y="372.9" text-anchor="middle" style="font-family: 'Open Sans', verdana, arial, sans-serif; font-size: 22px; fill: rgb(42, 63, 95); opacity: 1; font-weight: normal; white-space: pre;">l_split</text></g><g class="g-x3title"><text class="x3title" x="904.88" y="372.9" text-anchor="middle" style="font-family: 'Open Sans', verdana, arial, sans-serif; font-size: 22px; fill: rgb(42, 63, 95); opacity: 1; font-weight: normal; white-space: pre;">l_split</text></g><g class="g-ytitle"><text class="ytitle" transform="rotate(-90,20.459375,210)" x="20.459375" y="210" text-anchor="middle" style="font-family: 'Open Sans', verdana, arial, sans-serif; font-size: 22px; fill: rgb(42, 63, 95); opacity: 1; font-weight: normal; white-space: pre;">ul_split</text></g><g class="g-y2title"/><g class="g-y3title"/><g class="annotation" data-index="0" style="opacity: 1;"><g class="annotation-text-g" transform="rotate(0,237.11999999999998,87.5)"><g class="cursor-pointer" transform="translate(215,75)"><rect class="bg" x="0.5" y="0.5" width="44" height="24" style="stroke-width: 1px; stroke: rgb(0, 0, 0); stroke-opacity: 0; fill: rgb(0, 0, 0); fill-opacity: 0;"/><text class="annotation-text" text-anchor="middle" x="22.671875" y="19" style="font-family: 'Open Sans', verdana, arial, sans-serif; font-size: 18px; fill: rgb(42, 63, 95); fill-opacity: 1; white-space: pre;">hgbt</text></g></g></g><g class="annotation" data-index="1" style="opacity: 1;"><g class="annotation-text-g" transform="rotate(0,571,87.5)"><g class="cursor-pointer" transform="translate(552,75)"><rect class="bg" x="0.5" y="0.5" width="37" height="24" style="stroke-width: 1px; stroke: rgb(0, 0, 0); stroke-opacity: 0; fill: rgb(0, 0, 0); fill-opacity: 0;"/><text class="annotation-text" text-anchor="middle" x="18.984375" y="19" style="font-family: 'Open Sans', verdana, arial, sans-serif; font-size: 18px; fill: rgb(42, 63, 95); fill-opacity: 1; white-space: pre;">mlp</text></g></g></g><g class="annotation" data-index="2" style="opacity: 1;"><g class="annotation-text-g" transform="rotate(0,904.8799999999999,87.5)"><g class="cursor-pointer" transform="translate(839,75)"><rect class="bg" x="0.5" y="0.5" width="131" height="24" style="stroke-width: 1px; stroke: rgb(0, 0, 0); stroke-opacity: 0; fill: rgb(0, 0, 0); fill-opacity: 0;"/><text class="annotation-text" text-anchor="middle" x="66.09375" y="19" style="font-family: 'Open Sans', verdana, arial, sans-serif; font-size: 18px; fill: rgb(42, 63, 95); fill-opacity: 1; white-space: pre;">random-forest</text></g></g></g></g></svg>
